<svg width="15" height="19" viewBox="0 0 15 19" xmlns="http://www.w3.org/2000/svg">
<path d="M13.2009 7.32168H12.5329V5.44395C12.5329 2.66816 10.2767 0.408203 7.50091 0.408203C4.72512 0.408203 2.46887 2.66816 2.46887 5.44023V7.31797H1.80461C1.14778 7.31797 0.613403 7.85234 0.613403 8.50918V17.4006C0.613403 18.0574 1.14778 18.5918 1.80461 18.5918H13.2046C13.8615 18.5918 14.3958 18.0574 14.3958 17.4006V8.50918C14.3921 7.85605 13.8577 7.32168 13.2009 7.32168ZM3.98294 5.44023C3.98294 3.49941 5.56008 1.92227 7.50091 1.92227C9.44173 1.92227 11.0189 3.49941 11.0189 5.44023V7.31426H3.98294V5.44023ZM12.8743 17.0777H2.12747V8.83574H12.8781V17.0777H12.8743Z"/>
<path d="M7.49964 15.9455C7.91898 15.9455 8.25667 15.6078 8.25667 15.1885V13.2365C8.25667 12.8172 7.91898 12.4795 7.49964 12.4795C7.08031 12.4795 6.74261 12.8172 6.74261 13.2365V15.1885C6.74261 15.6041 7.08031 15.9455 7.49964 15.9455Z"/>
</svg>
