<svg width="17" height="13" viewBox="0 0 17 13" xmlns="http://www.w3.org/2000/svg">
<path d="M14.8575 0H1.97224C0.884747 0 0 0.884747 0 1.97224V10.3871C0 11.4746 0.884747 12.3594 1.97224 12.3594H14.8575C15.945 12.3594 16.8298 11.4746 16.8298 10.3871V1.97224C16.8298 0.884747 15.945 0 14.8575 0ZM15.515 10.3871C15.515 10.7496 15.22 11.0445 14.8575 11.0445H1.97224C1.60974 11.0445 1.31483 10.7496 1.31483 10.3871V1.97224C1.31483 1.60974 1.60974 1.31483 1.97224 1.31483H14.8575C15.22 1.31483 15.515 1.60974 15.515 1.97224V10.3871Z"/>
<path d="M15.4023 0.819824L8.41382 6.01789L1.42538 0.819824L0.640625 1.87481L8.41382 7.65655L16.187 1.87481L15.4023 0.819824Z"/>
</svg>
