<svg width="18" height="18" viewBox="0 0 18 18" xmlns="http://www.w3.org/2000/svg">
<path d="M10.4 11.7C10.4 11.3 10.7 10.9 11.2 10.9C11.6 10.9 12 11.2 12 11.7V16.3C12 16.7 11.7 17.1 11.2 17.1H0.8C0.3 17 0 16.7 0 16.3V0.8C0 0.3 0.3 0 0.8 0H11.2C11.6 0 12 0.3 12 0.8V5C12 5.4 11.7 5.8 11.2 5.8C10.8 5.8 10.4 5.5 10.4 5V1.5H1.5V15.5H10.4V11.7ZM14.75 7.8H6.05C5.65 7.8 5.25 8.1 5.25 8.6C5.25 9 5.55 9.4 6.05 9.4H14.75L13.75 10.4C13.45 10.7 13.45 11.2 13.75 11.5C14.05 11.8 14.55 11.8 14.85 11.5L17.15 9C17.35 8.7 17.35 8.3 17.15 8L14.85 5.7C14.55 5.4 14.05 5.4 13.75 5.7C13.45 6 13.45 6.5 13.75 6.8L14.75 7.8Z"/>
</svg>
