<svg width="17" height="20" viewBox="0 0 17 20" xmlns="http://www.w3.org/2000/svg">
<path d="M7.9034 10.3966C7.47578 10.3389 7.1759 9.94543 7.23363 9.51785C7.29137 9.09023 7.6848 8.79051 8.11234 8.84809C8.20648 8.86078 8.30277 8.86723 8.39848 8.86723C9.56156 8.86723 10.5079 7.92094 10.5079 6.75785C10.5079 5.59477 9.56156 4.64848 8.39848 4.64848C7.23539 4.64848 6.2891 5.59477 6.2891 6.75785C6.2891 6.87305 6.2984 6.98844 6.31672 7.10086C6.38613 7.52672 6.09719 7.92824 5.67137 7.99766C5.24504 8.06703 4.84398 7.77813 4.77457 7.3523C4.74269 7.15699 4.72656 6.95699 4.72656 6.75781C4.72656 4.73313 6.37375 3.08594 8.39844 3.08594C10.4231 3.08594 12.0703 4.73313 12.0703 6.75781C12.0703 8.7825 10.4231 10.4297 8.39844 10.4297C8.23309 10.4297 8.06648 10.4185 7.9034 10.3966Z"/>
<path d="M1.25918 15.4926C1.86015 15.1774 2.68527 14.9118 3.7116 14.7033C4.13465 14.6174 4.54683 14.8905 4.63277 15.3133C4.71867 15.7361 4.44555 16.1486 4.02273 16.2345C2.43957 16.5562 1.79051 16.9423 1.60328 17.1295C1.74121 17.2677 2.20242 17.6146 3.55738 17.9408C4.88836 18.2612 6.60754 18.4376 8.39844 18.4376C10.1893 18.4376 11.9085 18.2612 13.2395 17.9408C14.5945 17.6146 15.0556 17.2677 15.1936 17.1295C15.0063 16.9423 14.3573 16.5562 12.7741 16.2345C12.3513 16.1486 12.0782 15.7361 12.1641 15.3133C12.25 14.8905 12.6625 14.6175 13.0852 14.7033C14.1116 14.9118 14.9367 15.1774 15.5377 15.4926C16.3732 15.9309 16.7969 16.4821 16.7969 17.1308C16.7969 18.1001 15.8529 18.8503 13.9912 19.3607C12.4871 19.7731 10.5009 20.0001 8.39844 20.0001C6.29601 20.0001 4.3098 19.7731 2.8057 19.3607C0.943982 18.8503 -1.90735e-06 18.1001 -1.90735e-06 17.1308C-1.90735e-06 16.4821 0.42367 15.9309 1.25918 15.4926Z"/>
<path d="M9.05883 16.5112C8.91566 16.7377 8.66637 16.875 8.39844 16.875C8.13051 16.875 7.88121 16.7377 7.73805 16.5111C7.02176 15.3779 6.08945 14.3839 5.18781 13.4227C3.42605 11.5445 1.60433 9.60231 1.60156 6.71781C1.60367 4.90961 2.31422 3.21672 3.60238 1.95094C4.88273 0.692852 6.58605 0 8.39844 0C10.2097 0 11.907 0.69375 13.1775 1.95344C14.4514 3.21656 15.1541 4.90863 15.1562 6.71953C15.1535 9.60703 13.3406 11.5527 11.5875 13.4343C10.6951 14.392 9.77242 15.3822 9.05883 16.5112ZM8.39844 1.5625C5.51547 1.5625 3.16734 3.87602 3.16406 6.71801C3.16621 8.98359 4.63117 10.5454 6.32742 12.3538C7.02953 13.1023 7.74926 13.8696 8.39797 14.7261C9.04051 13.8756 9.75113 13.113 10.4443 12.3691C12.133 10.5566 13.5915 8.99125 13.5937 6.71965C13.5904 3.82777 11.3084 1.5625 8.39844 1.5625Z"/>
</svg>
