<svg width="25" height="25" viewBox="0 0 25 25" xmlns="http://www.w3.org/2000/svg">
<path d="M2.50002 5H0V22.5C0 23.8812 1.11873 25 2.50002 25H20V22.5H2.50002V5Z"/>
<path d="M9.99998 8.125H8.75V9.37498H9.99998V8.125Z"/>
<path d="M22.4996 0H7.49965C6.11842 0 4.99963 1.11873 4.99963 2.50002V17.5C4.99963 18.8812 6.11836 20 7.49965 20H22.4996C23.8809 20 24.9997 18.8813 24.9997 17.5V2.50002C24.9997 1.11873 23.8809 0 22.4996 0ZM11.8747 9.37499C11.8747 10.4125 11.0372 11.25 9.99967 11.25H8.74969V13.75H6.87469V6.25001H9.99967C11.0372 6.25001 11.8747 7.08749 11.8747 8.12501V9.37499ZM18.1246 11.875C18.1246 12.9125 17.2871 13.75 16.2496 13.75H13.1246V6.25001H16.2496C17.2871 6.25001 18.1246 7.08749 18.1246 8.12501V11.875ZM23.1247 8.12501H21.2497V9.37499H23.1247V11.25H21.2497V13.75H19.3747V6.25001H23.1247V8.12501Z"/>
<path d="M16.25 8.125H15V11.875H16.25V8.125Z"/>
</svg>
