<svg width="50" height="47" viewBox="0 0 50 47" xmlns="http://www.w3.org/2000/svg">
<path d="M47.4252 2.30594H3.08644C2.8653 12.7878 3.86043 20.482 7.06698 26.838C10.2735 33.3056 15.9126 38.6581 25.3111 44.345C34.599 38.6581 40.3487 33.3056 43.5553 26.838C46.7618 20.482 47.6464 12.7878 47.4252 2.30594ZM25.3111 0.0757446H49.6366V1.19084C49.9683 12.4533 48.9732 20.8165 45.5455 27.8416C42.0073 34.8667 35.9259 40.5537 25.864 46.5752L25.3111 46.9098L24.7583 46.5752C14.6963 40.5537 8.61497 34.8667 5.07671 27.8416C1.53845 20.8165 0.653887 12.4533 0.875028 1.19084V0.0757446H25.3111Z"/>
<path d="M26.36 7.9958L34.2382 21.6513H16.9062L25.6247 6.63025C25.6247 6.63025 26.36 7.9958 26.36 7.9958ZM28.3558 15.1387L25.6247 10.4118L20.0575 19.9706H31.0869L28.3558 15.1387Z"/>
<path d="M26.3597 16.294L35.2882 31.8402H15.8555L25.6244 14.9285L26.3597 16.294ZM28.8807 24.2772L25.6244 18.6049L19.0067 30.0545H32.137L28.8807 24.2772Z"/>
</svg>
