<svg width="50" height="47" viewBox="0 0 50 47" xmlns="http://www.w3.org/2000/svg">
<path d="M47.4252 2.30588H3.08644C2.8653 12.7878 3.86043 20.4819 7.06698 26.838C10.2735 33.3055 15.9126 38.658 25.3111 44.345C34.599 38.658 40.3487 33.3055 43.5553 26.838C46.7618 20.4819 47.6464 12.7878 47.4252 2.30588ZM25.3111 0.0756836H49.6366V1.19078C49.9683 12.4532 48.9732 20.8165 45.5455 27.8416C42.0073 34.8667 35.9259 40.5537 25.864 46.5752L25.3111 46.9097L24.7583 46.5752C14.6963 40.5537 8.61497 34.8667 5.07671 27.8416C1.53845 20.8165 0.653887 12.4532 0.875028 1.19078V0.0756836H25.3111Z"/>
<path d="M23.7373 11.8822C23.9474 11.4621 24.4726 11.252 24.9978 11.4621C25.418 11.6721 25.628 12.1973 25.418 12.7226L21.2163 21.441L31.7205 17.0293C32.1406 16.8192 32.7709 17.0293 32.8759 17.5545C32.981 17.8696 32.981 18.0797 32.8759 18.3948L25.7331 31.42C25.523 31.8402 24.8927 32.0503 24.4726 31.7352C24.0524 31.5251 23.8423 30.8948 24.1575 30.4747L30.0398 19.7604L19.8507 24.0671C19.6406 24.1721 19.3255 24.1721 19.0104 24.0671C18.5902 23.857 18.3801 23.3318 18.5902 22.8066L23.7373 11.8822Z"/>
<path d="M15.754 32.3654C15.2288 32.3654 14.8086 31.9453 14.8086 31.4201C14.8086 30.8948 15.2288 30.4747 15.754 30.4747H16.8044L35.6069 30.0545C36.1321 30.0545 36.5523 30.4747 36.5523 30.9999C36.5523 31.5251 36.1321 31.9453 35.6069 31.9453L16.8044 32.2604H16.6994L15.754 32.3654Z"/>
<path d="M25.6279 6.63019C26.5733 6.63019 27.4137 7.05036 28.0439 7.57557V7.68061C28.6742 8.31086 28.9893 9.1512 28.9893 9.99153C28.9893 10.9369 28.5691 11.7773 28.0439 12.4075H27.9389C27.3086 13.0378 26.4683 13.3529 25.6279 13.3529C24.6826 13.3529 23.8422 12.9327 23.212 12.4075C22.5817 11.7773 22.2666 10.9369 22.2666 9.99153C22.2666 9.04615 22.6868 8.20582 23.212 7.57557C23.8422 7.05036 24.6826 6.63019 25.6279 6.63019ZM26.6784 8.94111C26.3632 8.62599 26.0481 8.52094 25.6279 8.52094C25.2078 8.52094 24.7876 8.73103 24.5775 8.94111C24.2624 9.25624 24.1574 9.57136 24.1574 9.99153C24.1574 10.4117 24.3674 10.8319 24.5775 11.042C24.8927 11.3571 25.2078 11.4621 25.6279 11.4621C26.0481 11.4621 26.3632 11.252 26.6784 11.042C26.9935 10.7268 27.0985 10.4117 27.0985 9.99153C27.0985 9.67641 26.9935 9.25624 26.6784 8.94111Z"/>
</svg>
