<svg width="50" height="48" viewBox="0 0 50 48" xmlns="http://www.w3.org/2000/svg">
<path d="M47.4252 3.12942H3.08644C2.8653 13.6113 3.86043 21.3055 7.06698 27.6615C10.2735 34.1291 15.9126 39.4815 25.3111 45.1685C34.599 39.4815 40.3487 34.1291 43.5553 27.6615C46.7618 21.3055 47.6464 13.6113 47.4252 3.12942ZM25.3111 0.899231H49.6366V2.01433C49.9683 13.2768 48.9732 21.64 45.5455 28.6651C42.0073 35.6902 35.9259 41.3772 25.864 47.3987L25.3111 47.7333L24.7583 47.3987C14.6963 41.3772 8.61497 35.6902 5.07671 28.6651C1.53845 21.64 0.653887 13.2768 0.875028 2.01433V0.899231H25.3111Z"/>
<path d="M23.8402 6.40338H30.3528V25.3109H17.4326V12.8109H18.483C19.7435 12.8109 20.899 12.2857 21.6343 11.4454C22.4746 10.6051 22.9998 9.55464 22.9998 8.29414C22.9998 8.08405 22.9998 7.97901 22.9998 7.87397C22.9998 7.76893 22.9998 7.55884 22.8948 7.4538L22.6847 6.40338C22.7898 6.40338 23.8402 6.40338 23.8402 6.40338ZM28.5671 8.1891H24.8906V8.29414C24.8906 10.0799 24.1553 11.6555 22.9998 12.8109C22.0545 13.7563 20.794 14.3866 19.3234 14.5967V23.4202H28.5671V8.1891Z"/>
<path d="M12.4956 24.8907H38.2309V33.1891H11.6553V24.8907H12.4956ZM36.3402 26.7815H13.441V31.4034H36.3402V26.7815Z"/>
<path d="M30.1426 16.3823C29.6174 16.3823 29.1973 15.9622 29.1973 15.437C29.1973 14.9117 29.6174 14.4916 30.1426 14.4916H42.7477C43.2729 14.4916 43.6931 14.9117 43.6931 15.437C43.6931 15.9622 43.2729 16.3823 42.7477 16.3823H30.1426Z"/>
<path d="M30.1426 21.0042C29.6174 21.0042 29.1973 20.5841 29.1973 20.0588C29.1973 19.5336 29.6174 19.1135 30.1426 19.1135H42.7477C43.2729 19.1135 43.6931 19.5336 43.6931 20.0588C43.6931 20.5841 43.2729 21.0042 42.7477 21.0042H30.1426Z"/>
</svg>
