<svg width="50" height="47" viewBox="0 0 50 47" xmlns="http://www.w3.org/2000/svg">
<path d="M47.4252 2.30594H3.08644C2.8653 12.7878 3.86043 20.482 7.06698 26.838C10.2735 33.3056 15.9126 38.6581 25.3111 44.345C34.599 38.6581 40.3487 33.3056 43.5553 26.838C46.7618 20.482 47.6464 12.7878 47.4252 2.30594ZM25.3111 0.0757446H49.6366V1.19084C49.9683 12.4533 48.9732 20.8165 45.5455 27.8416C42.0073 34.8667 35.9259 40.5537 25.864 46.5752L25.3111 46.9098L24.7583 46.5752C14.6963 40.5537 8.61497 34.8667 5.07671 27.8416C1.53845 20.8165 0.653887 12.4533 0.875028 1.19084V0.0757446H25.3111Z"/>
<path d="M25.9893 10.832L33.5523 15.2437V24.4874L25.5691 29.1093L17.5859 24.4874V15.2437L25.5691 10.6219L25.9893 10.832ZM28.6154 14.4034L25.5691 12.6177L19.3716 16.1891V23.332L25.5691 26.9034L31.7666 23.332V16.1891L28.6154 14.4034Z"/>
<path d="M21.5762 10.4118C21.1561 10.2017 20.946 9.57147 21.2611 9.1513C21.4712 8.73113 22.1014 8.52105 22.5216 8.83618L26.093 10.832C26.5132 11.0421 26.7233 11.6723 26.4082 12.0925C26.093 12.5126 25.5678 12.7227 25.1477 12.4076L21.5762 10.4118Z"/>
<path d="M31.9766 11.7773C31.9766 11.2521 32.3967 10.8319 32.9219 10.8319C33.4471 10.8319 33.8673 11.2521 33.8673 11.7773V15.8739C33.8673 16.3991 33.4471 16.8193 32.9219 16.8193C32.3967 16.8193 31.9766 16.3991 31.9766 15.8739V11.7773Z"/>
<path d="M35.9682 21.4412C36.3883 21.2311 37.0186 21.3361 37.2287 21.7563C37.4387 22.1765 37.3337 22.8067 36.9135 23.0168L33.3421 25.0126C32.9219 25.2227 32.2917 25.1176 32.0816 24.6975C31.8715 24.2773 31.9766 23.647 32.3967 23.437L35.9682 21.4412Z"/>
<path d="M28.6166 8.83612C29.0368 8.62604 29.667 8.73108 29.8771 9.15125C30.0872 9.57141 29.9821 10.2017 29.562 10.4118L25.9906 12.4076C25.5704 12.6176 24.9401 12.5126 24.73 12.0924C24.52 11.6723 24.625 11.042 25.0452 10.8319L28.6166 8.83612Z"/>
<path d="M36.9138 17.1345C37.334 17.3446 37.5441 17.9748 37.229 18.395C36.9138 18.8151 36.3886 19.0252 35.9685 18.7101L32.397 16.7143C31.9769 16.5042 31.7668 15.874 32.0819 15.4538C32.292 15.0336 32.9222 14.8235 33.3424 15.1387L36.9138 17.1345Z"/>
<path d="M33.7623 28.374C33.7623 28.8992 33.3422 29.3194 32.817 29.3194C32.2918 29.3194 31.8716 28.8992 31.8716 28.374V24.2773C31.8716 23.7521 32.2918 23.332 32.817 23.332C33.3422 23.332 33.7623 23.7521 33.7623 24.2773V28.374Z"/>
<path d="M26.5158 11.2521C26.5158 11.7773 26.0956 12.1975 25.5704 12.1975C25.0452 12.1975 24.625 11.7773 24.625 11.2521V7.57563C24.625 7.05042 25.0452 6.63025 25.5704 6.63025C26.0956 6.63025 26.5158 7.05042 26.5158 7.57563V11.2521Z"/>
<path d="M33.6585 16.5042C33.2384 16.7143 32.6081 16.6093 32.398 16.1891C32.1879 15.7689 32.293 15.1387 32.7131 14.9286L35.8644 13.1429C36.2846 12.9328 36.9148 13.0378 37.1249 13.458C37.335 13.8782 37.23 14.5084 36.8098 14.7185L33.6585 16.5042Z"/>
<path d="M32.712 25.3277C32.2918 25.1176 32.0817 24.4874 32.3968 24.0672C32.6069 23.647 33.2372 23.4369 33.6574 23.7521L36.8086 25.5378C37.2288 25.7479 37.4389 26.3781 37.1237 26.7983C36.9137 27.2185 36.2834 27.4285 35.8632 27.1134L32.712 25.3277Z"/>
<path d="M22.5218 31.4201C22.1016 31.6302 21.4714 31.5252 21.2613 31.105C21.0512 30.6848 21.1562 30.0546 21.5764 29.8445L25.1478 27.8487C25.568 27.6386 26.1983 27.7437 26.4083 28.1638C26.6184 28.584 26.5134 29.2142 26.0932 29.4243L22.5218 31.4201Z"/>
<path d="M14.2247 23.0168C13.8045 22.8067 13.5944 22.1764 13.9095 21.7563C14.2247 21.3361 14.7499 21.126 15.17 21.4412L18.7415 23.437C19.1616 23.647 19.3717 24.2773 19.0566 24.6975C18.8465 25.1176 18.2163 25.3277 17.7961 25.0126L14.2247 23.0168Z"/>
<path d="M17.376 11.7773C17.376 11.2521 17.7961 10.8319 18.3214 10.8319C18.8466 10.8319 19.2667 11.2521 19.2667 11.7773V15.8739C19.2667 16.3991 18.8466 16.8193 18.3214 16.8193C17.7961 16.8193 17.376 16.3991 17.376 15.8739V11.7773Z"/>
<path d="M29.5608 29.7395C29.981 29.9496 30.1911 30.5798 29.8759 31C29.6659 31.4202 29.0356 31.6303 28.6154 31.3151L25.044 29.3193C24.6238 29.1093 24.4137 28.479 24.7289 28.0588C25.044 27.6387 25.5692 27.4286 25.9894 27.7437L29.5608 29.7395Z"/>
<path d="M19.1603 28.3739C19.1603 28.8991 18.7401 29.3193 18.2149 29.3193C17.6897 29.3193 17.2695 28.8991 17.2695 28.3739V24.2773C17.2695 23.7521 17.6897 23.3319 18.2149 23.3319C18.7401 23.3319 19.1603 23.7521 19.1603 24.2773V28.3739Z"/>
<path d="M15.1702 18.7101C14.7501 18.9202 14.1198 18.8151 13.9097 18.395C13.6996 17.9748 13.8047 17.3446 14.2249 17.1345L17.7963 15.1387C18.2165 14.9286 18.8467 15.0336 19.0568 15.4538C19.2669 15.874 19.1618 16.5042 18.7417 16.7143L15.1702 18.7101Z"/>
<path d="M24.625 28.8992C24.625 28.374 25.0452 27.9539 25.5704 27.9539C26.0956 27.9539 26.5158 28.374 26.5158 28.8992V32.5757C26.5158 33.1009 26.0956 33.5211 25.5704 33.5211C25.0452 33.5211 24.625 33.1009 24.625 32.5757V28.8992Z"/>
<path d="M17.4811 23.752C17.9013 23.5419 18.5315 23.647 18.7416 24.0671C18.9517 24.4873 18.8466 25.1176 18.4265 25.3276L15.2752 27.1134C14.855 27.3234 14.2248 27.2184 14.0147 26.7982C13.8046 26.3781 13.9097 25.7478 14.3298 25.5377L17.4811 23.752Z"/>
<path d="M18.4263 14.9285C18.8465 15.1386 19.0565 15.7689 18.7414 16.189C18.5313 16.6092 17.9011 16.8193 17.4809 16.5042L14.3296 14.7184C13.9095 14.5084 13.6994 13.8781 14.0145 13.4579C14.2246 13.0378 14.8549 12.8277 15.275 13.1428L18.4263 14.9285Z"/>
</svg>
