<svg width="50" height="48" viewBox="0 0 50 48" xmlns="http://www.w3.org/2000/svg">
<path d="M47.4252 2.53274H3.08644C2.8653 13.0146 3.86043 20.7088 7.06698 27.0648C10.2735 33.5324 15.9126 38.8849 25.3111 44.5719C34.599 38.8849 40.3487 33.5324 43.5553 27.0648C46.7618 20.7088 47.6464 13.0146 47.4252 2.53274ZM25.3111 0.302551H49.6366V1.41765C49.9683 12.6801 48.9732 21.0433 45.5455 28.0684C42.0073 35.0935 35.9259 40.7805 25.864 46.802L25.3111 47.1366L24.7583 46.802C14.6963 40.7805 8.61497 35.0935 5.07671 28.0684C1.53845 21.0433 0.653887 12.6801 0.875028 1.41765V0.302551H25.3111Z"/>
<path d="M32.4495 15.1451L31.5287 14.3981L31.0999 15.5044C31.0916 15.5255 30.2679 17.6084 29.0029 17.229C28.7228 17.1449 28.535 16.9829 28.4118 16.7189C28.0976 16.0459 28.2313 14.8279 28.7522 13.6158C29.4725 11.9398 29.1571 10.1835 27.8401 8.53684C26.9136 7.3786 25.8006 6.67741 25.7536 6.64809L24.405 5.8067L24.4351 7.39607C24.4356 7.42447 24.4646 10.2482 22.3739 11.2836C21.0929 11.918 20.1759 12.9673 19.7918 14.2381C19.4324 15.427 19.5833 16.7269 20.2058 17.8044C20.4606 18.2455 20.5378 18.6196 20.4354 18.9163C20.289 19.3403 19.816 19.5586 19.6745 19.6153C18.1798 20.2157 17.2014 18.2115 17.1618 18.1288L16.48 16.6736L15.6445 18.0463C14.5715 19.8091 14.0044 21.8378 14.0044 23.913C14.0044 30.1015 19.0031 35.1437 25.1752 35.2168C25.2202 35.2179 25.2654 35.2185 25.3108 35.2185H25.3108H25.311C31.5455 35.2185 36.6175 30.1468 36.6175 23.913C36.6175 20.4994 35.0984 17.3036 32.4495 15.1451ZM21.7748 29.9582L21.7748 29.9476C21.7663 29.2613 21.897 28.5253 22.1642 27.7521L24.2895 28.3732L24.3109 27.2456C24.3437 25.5185 25.3176 24.4582 26.0963 23.8847C26.2959 24.7534 26.6072 25.528 27.0371 26.2305C27.5272 27.0303 27.9914 27.7083 28.4196 28.321C28.6946 28.7156 28.8506 29.3111 28.8475 29.955V29.9592C28.8475 30.9033 28.4796 31.7911 27.8116 32.4591C27.1442 33.1265 26.2561 33.494 25.3108 33.494C25.3107 33.494 25.3107 33.494 25.3105 33.494C23.3616 33.4938 21.7755 31.9084 21.7748 29.9582ZM30.0568 32.2339C30.3934 31.5334 30.5718 30.7609 30.572 29.9609C30.5765 28.9561 30.3144 28.0234 29.8337 27.3339C29.3561 26.6504 28.9479 26.0479 28.5077 25.3298C28.017 24.5278 27.7219 23.5827 27.6057 22.4404L27.4921 21.3239L26.4425 21.7213C26.3441 21.7586 25.455 22.1092 24.5437 22.9358C23.5773 23.8125 22.9535 24.8965 22.7062 26.1138L21.1648 25.6633L20.8605 26.3572C20.3097 27.6134 20.0371 28.8267 20.0503 29.9636C20.0511 30.7773 20.2377 31.5483 20.5698 32.2365C17.6805 30.5846 15.7289 27.4725 15.7289 23.9129C15.7289 22.618 15.9891 21.3448 16.489 20.1677C16.5656 20.2524 16.6471 20.3371 16.7335 20.4203C17.7897 21.437 19.0623 21.7194 20.3169 21.2156C21.1645 20.8754 21.8017 20.2425 22.0654 19.4793C22.253 18.9359 22.3418 18.0545 21.6989 16.9417C21.3082 16.2654 21.2171 15.4824 21.4424 14.737C21.6872 13.9272 22.2898 13.2496 23.1391 12.8289C24.9267 11.9436 25.6574 10.2816 25.9555 9.02091C26.1435 9.20589 26.3368 9.41542 26.5184 9.64582C27.4044 10.7692 27.6229 11.8758 27.1677 12.935C26.4398 14.629 26.3206 16.3162 26.849 17.4483C27.181 18.1596 27.7545 18.6549 28.5073 18.8808C29.6906 19.2358 30.848 18.8225 31.7662 17.7171C31.91 17.5441 32.0369 17.3679 32.1474 17.1986C33.9037 18.9833 34.893 21.3772 34.893 23.9129C34.893 27.4706 32.9436 30.5814 30.0568 32.2339Z"/>
</svg>
