<svg width="50" height="48" viewBox="0 0 50 48" xmlns="http://www.w3.org/2000/svg">
<path d="M47.4252 3.12942H3.08644C2.8653 13.6113 3.86043 21.3055 7.06698 27.6615C10.2735 34.1291 15.9126 39.4815 25.3111 45.1685C34.599 39.4815 40.3487 34.1291 43.5553 27.6615C46.7618 21.3055 47.6464 13.6113 47.4252 3.12942ZM25.3111 0.899231H49.6366V2.01433C49.9683 13.2768 48.9732 21.64 45.5455 28.6651C42.0073 35.6902 35.9259 41.3772 25.864 47.3987L25.3111 47.7333L24.7583 47.3987C14.6963 41.3772 8.61497 35.6902 5.07671 28.6651C1.53845 21.64 0.653887 13.2768 0.875028 2.01433V0.899231H25.3111Z"/>
<path d="M19.8488 13.5462H26.3614V12.4958H19.8488V13.5462ZM27.2017 15.3319H18.9034C18.3782 15.3319 17.958 14.9118 17.958 14.3866V11.5504C17.958 11.0252 18.3782 10.605 18.9034 10.605H27.2017C27.7269 10.605 28.1471 11.0252 28.1471 11.5504V14.3866C28.1471 14.9118 27.7269 15.3319 27.2017 15.3319Z"/>
<path d="M14.9119 15.1219C15.7523 15.1219 16.5926 15.332 17.3279 15.5421C18.0632 15.8572 18.7985 16.2774 19.3237 16.9076C19.6389 17.2227 19.6389 17.853 19.3237 18.1681C19.1136 18.3782 18.9036 18.4832 18.6935 18.4832H17.2229V26.6765C17.2229 27.0967 16.9077 27.5168 16.4876 27.6219C16.2775 27.7269 15.9624 27.7269 15.7523 27.7269C15.4372 27.7269 15.2271 27.832 14.9119 27.832C13.1262 27.832 11.5506 27.0967 10.3952 25.9412C9.23969 24.7858 8.50439 23.2101 8.50439 21.4244C8.50439 19.6387 9.23969 18.0631 10.3952 16.9076C11.5506 15.7521 13.1262 15.1219 14.9119 15.1219ZM15.6473 17.0126C15.4372 17.0126 15.122 16.9076 14.9119 16.9076C13.6514 16.9076 12.496 17.4328 11.7607 18.2731C10.9204 19.1135 10.3952 20.1639 10.3952 21.4244C10.3952 22.6849 10.9204 23.8404 11.7607 24.5757C12.601 25.416 13.6514 25.9412 14.9119 25.9412C15.122 25.9412 15.2271 25.9412 15.4372 25.9412V17.6429C15.4372 17.3278 15.4372 17.1177 15.6473 17.0126Z"/>
<path d="M39.1767 19.7437C39.4918 20.6891 40.1221 21.5294 40.6473 22.2647C41.3826 23.4202 42.1179 24.3656 42.1179 25.521C42.1179 26.5715 41.5927 27.6219 40.8574 28.2521C40.1221 28.9874 39.1767 29.3025 38.0212 29.3025C36.9708 29.3025 35.9204 28.7773 35.2902 28.042C34.5549 27.3067 34.2397 26.3614 34.2397 25.2059C34.2397 23.8404 34.7649 23.3152 35.7103 22.0546C36.2355 21.4244 36.7607 20.5841 37.6011 19.4286L38.6515 17.853L39.1767 19.7437ZM39.0717 23.3152C38.7565 22.895 38.4414 22.3698 38.1263 21.8446C37.7061 22.3698 37.391 22.895 37.0759 23.2101C36.3406 24.1555 36.0255 24.5757 36.0255 25.3109C36.0255 25.9412 36.2355 26.4664 36.5507 26.7815C36.8658 27.2017 37.391 27.4118 38.0212 27.4118C38.6515 27.4118 39.1767 27.2017 39.4918 26.8866C39.912 26.5715 40.1221 26.0462 40.1221 25.416C40.2271 24.8908 39.7019 24.1555 39.0717 23.3152Z"/>
<path d="M28.0421 16.5925C32.1387 11.2354 36.2354 11.3404 40.4371 14.8068C40.8572 15.1219 40.8572 15.7522 40.5421 16.0673C40.4371 16.1724 40.227 16.2774 40.1219 16.3824C39.8068 16.4875 39.5967 16.5925 39.3866 16.6976C39.0715 16.9076 38.8614 17.0127 38.2312 17.2228C38.0211 17.2228 37.9161 17.2228 37.706 17.2228C34.7648 16.3824 33.1892 18.4833 31.7186 20.4791C31.4035 21.0043 30.9833 21.4245 30.6682 21.8446V28.5673C30.6682 29.0925 30.248 29.5127 29.7228 29.5127H16.2774C15.7522 29.5127 15.332 29.0925 15.332 28.5673V17.5379C15.332 17.0127 15.7522 16.5925 16.2774 16.5925H28.0421ZM38.0211 15.4371C35.185 13.6513 32.4539 14.0715 29.6177 17.6429C29.6177 18.1681 29.1976 18.4833 28.6724 18.4833H17.2228V27.727H28.8824V21.6345C28.8824 21.4245 28.9875 21.2144 29.0925 21.0043C29.5127 20.4791 29.9329 19.9539 30.248 19.4287C32.1388 17.0127 34.0295 14.4917 38.0211 15.4371Z"/>
<path d="M22.0547 14.7017C22.0547 14.1765 22.4749 13.7563 23.0001 13.7563C23.5253 13.7563 23.9454 14.1765 23.9454 14.7017V17.3277C23.9454 17.8529 23.5253 18.2731 23.0001 18.2731C22.4749 18.2731 22.0547 17.8529 22.0547 17.3277V14.7017Z"/>
</svg>
