<svg width="50" height="48" viewBox="0 0 50 48" xmlns="http://www.w3.org/2000/svg">
<path d="M47.4252 3.12942H3.08644C2.8653 13.6113 3.86043 21.3055 7.06698 27.6615C10.2735 34.1291 15.9126 39.4815 25.3111 45.1685C34.599 39.4815 40.3487 34.1291 43.5553 27.6615C46.7618 21.3055 47.6464 13.6113 47.4252 3.12942ZM25.3111 0.899231H49.6366V2.01433C49.9683 13.2768 48.9732 21.64 45.5455 28.6651C42.0073 35.6902 35.9259 41.3772 25.864 47.3987L25.3111 47.7333L24.7583 47.3987C14.6963 41.3772 8.61497 35.6902 5.07671 28.6651C1.53845 21.64 0.653887 13.2768 0.875028 2.01433V0.899231H25.3111Z"/>
<path d="M11.5504 29.4076C11.0252 29.4076 10.605 28.9875 10.605 28.4622C10.605 27.937 11.0252 27.5169 11.5504 27.5169H20.0588C21.8445 27.5169 23.6302 26.5715 25.521 25.6261C27.5168 24.5757 29.6176 23.6303 31.7184 23.6303C33.189 23.6303 34.7646 24.0505 36.3403 24.7858C37.7058 25.5211 38.9663 26.4664 40.0167 27.832C40.3319 28.2522 40.2268 28.7774 39.8067 29.0925C39.3865 29.4076 38.8613 29.3026 38.5462 28.8824C37.7058 27.7269 36.6554 26.8866 35.4999 26.3614C34.2394 25.7311 32.8739 25.416 31.7184 25.416C29.9327 25.416 28.147 26.3614 26.2562 27.3068C24.2604 28.3572 22.1596 29.3026 20.0588 29.3026L11.5504 29.4076Z"/>
<path d="M18.6946 15.0169C18.7996 16.0673 19.1147 17.0127 19.4299 17.853C19.9551 19.2185 20.3752 20.269 19.9551 21.4244C19.6399 22.4748 18.9046 23.3152 18.0643 23.7353C17.224 24.2606 16.0685 24.3656 15.1231 24.0505C14.0727 23.7353 13.2324 23 12.8122 22.1597C12.287 21.3194 12.182 20.1639 12.4971 19.2185C12.9173 17.958 13.4425 17.4328 14.703 16.4874C15.3332 16.0673 16.0685 15.437 17.224 14.4916L18.5895 13.2311L18.6946 15.0169ZM17.7492 18.4832C17.5391 17.958 17.329 17.4328 17.224 16.8026C16.6988 17.2227 16.2786 17.5379 15.8584 17.853C14.913 18.5883 14.4929 18.9034 14.2828 19.6387C14.0727 20.1639 14.1778 20.7942 14.3878 21.2143C14.5979 21.6345 15.1231 22.0547 15.6483 22.2648C16.1736 22.4748 16.8038 22.3698 17.224 22.1597C17.6441 21.9496 18.0643 21.4244 18.2744 20.8992C18.3794 20.374 18.0643 19.5337 17.7492 18.4832Z"/>
<path d="M28.1468 10.2899C28.2518 11.3403 28.5669 12.2857 28.8821 13.1261C29.3022 14.3866 29.7224 15.542 29.4073 16.6975C29.0921 17.7479 28.3568 18.5882 27.5165 19.0084C26.6762 19.5336 25.5207 19.6387 24.5753 19.3235H24.4703C23.4199 19.0084 22.6846 18.2731 22.1594 17.4328C21.6342 16.5924 21.5291 15.437 21.8443 14.4916V14.3866C22.2644 13.1261 22.7896 12.7059 24.0501 11.7605C24.6804 11.3403 25.4157 10.7101 26.5711 9.76472L27.9367 8.50421L28.1468 10.2899ZM27.2014 13.7563C26.9913 13.2311 26.7812 12.7059 26.6762 12.0756C26.151 12.4958 25.7308 12.8109 25.3106 13.1261C24.3653 13.8614 23.9451 14.1765 23.735 14.9118C23.63 15.437 23.63 16.0672 23.9451 16.4874C24.1552 16.9076 24.6804 17.3277 25.2056 17.5378C25.7308 17.7479 26.3611 17.6429 26.7812 17.3277C27.2014 17.1177 27.6216 16.5924 27.8316 16.0672C27.8316 15.542 27.5165 14.7017 27.2014 13.7563Z"/>
<path d="M36.4455 13.3362C36.5506 14.3866 36.8657 15.332 37.1808 16.1723C37.601 17.4328 38.0212 18.5883 37.706 19.7438C37.3909 20.7942 36.6556 21.6345 35.8153 22.0547C34.9749 22.5799 33.8195 22.6849 32.8741 22.3698C31.8237 22.0547 30.9834 21.3194 30.5632 20.479C30.038 19.6387 29.9329 18.4832 30.2481 17.5379C30.6682 16.2774 31.1934 15.7522 32.4539 14.8068C33.0842 14.3866 33.8195 13.7564 34.975 12.811L36.3405 11.5505L36.4455 13.3362ZM35.3951 16.8026C35.185 16.2774 34.9749 15.7522 34.8699 15.1219C34.3447 15.5421 33.9245 15.8572 33.5044 16.1723C32.559 16.9076 32.1388 17.2227 31.9287 17.958C31.7186 18.4832 31.8237 19.1135 32.0338 19.5337C32.2439 19.9538 32.7691 20.374 33.2943 20.5841C33.8195 20.7942 34.4497 20.6891 34.8699 20.479C35.2901 20.269 35.7102 19.7438 35.9203 19.2185C36.1304 18.5883 35.8153 17.748 35.3951 16.8026Z"/>
</svg>
