<svg width="50" height="47" viewBox="0 0 50 47" xmlns="http://www.w3.org/2000/svg">
<path d="M47.4252 2.30594H3.08644C2.8653 12.7878 3.86043 20.482 7.06698 26.838C10.2735 33.3056 15.9126 38.6581 25.3111 44.345C34.599 38.6581 40.3487 33.3056 43.5553 26.838C46.7618 20.482 47.6464 12.7878 47.4252 2.30594ZM25.3111 0.0757446H49.6366V1.19084C49.9683 12.4533 48.9732 20.8165 45.5455 27.8416C42.0073 34.8667 35.9259 40.5537 25.864 46.5752L25.3111 46.9098L24.7583 46.5752C14.6963 40.5537 8.61497 34.8667 5.07671 27.8416C1.53845 20.8165 0.653887 12.4533 0.875028 1.19084V0.0757446H25.3111Z"/>
<path d="M25.8416 15.5588C28.6777 15.5588 31.1988 16.3992 33.4046 17.8698C35.6105 19.3403 37.3962 21.5462 38.3416 24.0672L38.8668 25.3277H12.8164L13.3416 24.0672C14.392 21.5462 16.0727 19.3403 18.2786 17.8698C20.3794 16.3992 23.0055 15.5588 25.8416 15.5588ZM32.3542 19.3403C30.4635 18.0798 28.2576 17.3445 25.8416 17.3445C23.4256 17.3445 21.1147 18.0798 19.329 19.3403C17.7534 20.3908 16.4929 21.7563 15.6525 23.437H36.1357C35.1904 21.8614 33.9299 20.3908 32.3542 19.3403Z"/>
<path d="M22.5853 29.7395C23.1105 29.7395 23.5307 30.1596 23.5307 30.6848C23.5307 31.2101 23.1105 31.6302 22.5853 31.6302C21.955 31.6302 21.4298 31.8403 21.0097 32.2605C20.5895 32.6806 20.3794 33.2059 20.3794 33.8361C20.3794 34.4664 20.5895 34.9916 21.0097 35.4117C21.4298 35.8319 21.955 36.042 22.5853 36.042C23.2155 36.042 23.7407 35.8319 24.1609 35.4117C24.5811 34.9916 24.7912 34.4664 24.7912 33.8361V24.9075C24.7912 24.3823 25.2113 23.9622 25.7365 23.9622C26.2618 23.9622 26.6819 24.3823 26.6819 24.9075V33.8361C26.6819 34.9916 26.2618 35.9369 25.5265 36.6722C24.7912 37.4075 23.7407 37.8277 22.6903 37.8277C21.5349 37.8277 20.5895 37.4075 19.8542 36.6722C19.1189 35.9369 18.6987 34.8865 18.6987 33.8361C18.6987 32.6806 19.1189 31.7353 19.8542 31C20.4844 30.1596 21.5349 29.7395 22.5853 29.7395Z"/>
<path d="M17.7533 9.88661C17.7533 10.5169 18.0684 11.1471 18.2785 11.7774C18.5936 12.7227 18.9088 13.458 18.5936 14.4034C18.3836 15.1387 17.8583 15.769 17.1231 16.1891C16.4928 16.5043 15.6525 16.6093 14.8121 16.3992C14.0768 16.1891 13.4466 15.6639 13.0264 14.9286C12.7113 14.2984 12.6062 13.458 12.8163 12.6177C13.1315 11.6723 13.5516 11.3572 14.497 10.6219C14.9172 10.3068 15.4424 9.88661 16.1777 9.25635L17.5432 7.99585C17.5432 8.10089 17.7533 9.88661 17.7533 9.88661ZM16.4928 12.4076C16.3878 12.1975 16.2827 11.8824 16.1777 11.6723C15.9676 11.8824 15.7575 11.9874 15.5474 12.0925C14.9172 12.5127 14.7071 12.7227 14.602 13.1429C14.497 13.458 14.602 13.7732 14.7071 13.9832C14.8121 14.1933 15.1273 14.4034 15.3373 14.5085C15.6525 14.6135 15.9676 14.5085 16.1777 14.4034C16.3878 14.2984 16.5978 13.9832 16.7029 13.7732C16.913 13.5631 16.7029 13.0379 16.4928 12.4076Z"/>
<path d="M26.683 7.47059C26.683 8.10084 26.9981 8.73109 27.2082 9.36135C27.5233 10.3067 27.8385 11.042 27.5233 11.9874C27.3132 12.7227 26.788 13.3529 26.0527 13.7731C25.4225 14.0882 24.5822 14.1933 23.7418 13.9832C23.0065 13.7731 22.3763 13.2479 21.9561 12.5126C21.641 11.8824 21.5359 11.042 21.746 10.2017C22.0611 9.2563 22.4813 8.94118 23.4267 8.20588C23.8469 7.89076 24.3721 7.47059 25.1074 6.84034L26.4729 5.57983C26.5779 5.68488 26.683 7.47059 26.683 7.47059ZM25.4225 9.9916C25.3174 9.78151 25.2124 9.46639 25.1074 9.2563C24.8973 9.46639 24.6872 9.57143 24.4771 9.67647C23.8469 10.0966 23.6368 10.3067 23.5317 10.7269C23.4267 11.042 23.5317 11.3571 23.6368 11.5672C23.7418 11.7773 24.0569 11.9874 24.267 12.0924C24.5822 12.1975 24.8973 12.0924 25.1074 11.9874C25.3174 11.8824 25.5275 11.5672 25.6326 11.3571C25.8427 11.1471 25.7376 10.6218 25.4225 9.9916Z"/>
<path d="M36.0305 9.7815C36.0305 10.4118 36.3457 11.042 36.5557 11.6723C36.8709 12.5126 37.186 13.3529 36.9759 14.0882V14.1933C36.7658 14.9286 36.2406 15.5588 35.5053 15.979C34.8751 16.2941 34.1398 16.3991 33.4045 16.2941H33.2994L33.1944 16.1891C32.4591 15.979 31.8288 15.4538 31.5137 14.7185C31.1986 14.0882 31.0936 13.2479 31.3036 12.4076V12.3025C31.6188 11.3571 32.0389 11.042 32.8793 10.3067C33.2994 9.99159 33.8246 9.57142 34.5599 8.94116L35.9255 7.68066L36.0305 9.7815ZM34.77 12.1975C34.665 11.9874 34.665 11.7773 34.5599 11.4622L33.9297 11.8823C33.2994 12.3025 33.0893 12.5126 32.9843 12.9328C32.8793 13.2479 32.9843 13.563 33.0893 13.7731C33.1944 13.9832 33.5095 14.1933 33.7196 14.2983C34.0347 14.4033 34.3499 14.2983 34.5599 14.1933C34.77 14.0882 34.9801 13.8781 35.0851 13.563C35.1902 13.3529 34.9801 12.8277 34.77 12.1975Z"/>
</svg>
