<svg width="50" height="48" viewBox="0 0 50 48" xmlns="http://www.w3.org/2000/svg">
<path d="M47.4252 3.12942H3.08644C2.8653 13.6113 3.86043 21.3055 7.06698 27.6615C10.2735 34.1291 15.9126 39.4815 25.3111 45.1685C34.599 39.4815 40.3487 34.1291 43.5553 27.6615C46.7618 21.3055 47.6464 13.6113 47.4252 3.12942ZM25.3111 0.899231H49.6366V2.01433C49.9683 13.2768 48.9732 21.64 45.5455 28.6651C42.0073 35.6902 35.9259 41.3772 25.864 47.3987L25.3111 47.7333L24.7583 47.3987C14.6963 41.3772 8.61497 35.6902 5.07671 28.6651C1.53845 21.64 0.653887 13.2768 0.875028 2.01433V0.899231H25.3111Z"/>
<path d="M15.122 14.0714C15.122 14.5966 14.7018 15.0167 14.1766 15.0167C13.6514 15.0167 13.2312 14.5966 13.2312 14.0714C13.2312 12.9159 13.7564 11.7604 14.4917 11.0252C15.227 10.2899 16.3825 9.76465 17.5379 9.76465C18.6934 9.76465 19.8489 10.2899 20.5842 11.0252C21.3195 11.8655 21.8447 12.9159 21.8447 14.0714C21.8447 15.2268 21.3195 16.3823 20.5842 17.1176C19.8489 17.8529 18.6934 18.3781 17.5379 18.3781H9.34467C9.02954 18.3781 8.60938 17.9579 8.60938 17.4327C8.60938 16.9075 9.02954 16.4873 9.55475 16.4873H17.748C18.4833 16.4873 19.0085 16.1722 19.5337 15.752C19.9539 15.3319 20.269 14.7016 20.269 13.9663C20.269 13.231 19.9539 12.6008 19.5337 12.1806C19.1136 11.7604 18.4833 11.4453 17.748 11.4453C17.0127 11.5504 16.3825 11.8655 15.8573 12.2857C15.4371 12.7058 15.122 13.3361 15.122 14.0714Z"/>
<path d="M23.9456 17.1176C23.9456 17.6428 23.5254 18.063 23.0002 18.063C22.475 18.063 22.0548 17.6428 22.0548 17.1176C22.0548 15.9622 22.58 14.8067 23.3153 14.0714C24.0506 13.3361 25.2061 12.8109 26.3615 12.8109C27.517 12.8109 28.6725 13.3361 29.4078 14.0714C30.143 14.9118 30.6683 15.9622 30.6683 17.1176C30.6683 18.2731 30.143 19.4286 29.4078 20.1639C28.6725 20.8991 27.517 21.4244 26.3615 21.4244H9.44977C8.92456 21.4244 8.50439 21.0042 8.50439 20.479C8.50439 19.9538 8.92456 19.5336 9.44977 19.5336H26.3615C27.0968 19.5336 27.7271 19.2185 28.1473 18.7983C28.5674 18.3781 28.8825 17.7479 28.8825 17.0126C28.8825 16.2773 28.5674 15.647 28.1473 15.2269C27.7271 14.8067 27.0968 14.4916 26.3615 14.4916C25.6262 14.4916 24.996 14.8067 24.5758 15.2269C24.2607 15.8571 23.9456 16.4874 23.9456 17.1176Z"/>
<path d="M24.2606 26.8866C24.2606 26.3614 24.6807 25.9412 25.206 25.9412C25.7312 25.9412 26.1513 26.3614 26.1513 26.8866C26.1513 27.6219 26.4665 28.2522 26.8866 28.6723C27.3068 29.0925 27.937 29.4076 28.6723 29.4076C29.4076 29.4076 30.0379 29.0925 30.4581 28.6723C30.8782 28.2522 31.1933 27.6219 31.1933 26.8866C31.1933 26.1513 30.8782 25.5211 30.4581 25.1009C30.0379 24.6807 29.4076 24.3656 28.6723 24.3656H9.65973C9.13452 24.3656 8.71436 23.9454 8.71436 23.4202C8.71436 22.895 9.13452 22.4749 9.65973 22.4749H28.6723C29.8278 22.4749 30.9833 23.0001 31.7186 23.7354C32.4539 24.4707 32.9791 25.6261 32.9791 26.7816C32.9791 27.937 32.4539 29.0925 31.7186 29.8278C30.9833 30.5631 29.8278 31.0883 28.6723 31.0883C27.5169 31.0883 26.3614 30.5631 25.6261 29.8278C24.6807 29.0925 24.2606 28.0421 24.2606 26.8866Z"/>
<path d="M33.0843 7.34876C33.0843 6.82355 33.3994 6.40338 33.9246 6.40338C34.4498 6.40338 34.87 6.71851 34.87 7.24372C35.0801 9.02943 34.5549 10.5 34.0297 11.8656C33.7145 12.8109 33.3994 13.8614 33.3994 14.8067C33.3994 16.4874 34.4498 17.958 35.5003 19.5336C36.6557 21.1093 37.7061 22.7899 37.9162 24.6807C38.0213 25.8362 37.6011 26.9916 37.0759 28.1471C36.5507 29.3025 36.0255 30.6681 36.2356 32.1387C36.3406 32.6639 35.9204 33.0841 35.5003 33.1891C34.9751 33.2941 34.5549 32.874 34.4498 32.4538C34.1347 30.458 34.87 28.8824 35.5003 27.5168C35.9204 26.5714 36.2356 25.7311 36.2356 24.9958C36.0255 23.4202 35.0801 22.0546 34.1347 20.6891C32.8742 18.9034 31.7188 17.1177 31.7188 14.9118C31.7188 13.6513 32.1389 12.4958 32.454 11.3404C32.7692 10.0799 33.1893 8.81935 33.0843 7.34876Z"/>
</svg>
