<svg width="18" height="17" viewBox="0 0 18 17" xmlns="http://www.w3.org/2000/svg">
<path fill-rule="evenodd" clip-rule="evenodd" d="M8.94545 2.0441C10.2545 2.0441 11.3455 3.01236 11.3455 4.30337C11.3455 5.4868 10.2545 6.56264 8.94545 6.56264C7.63636 6.56264 6.65455 5.4868 6.65455 4.19579C6.65455 3.01236 7.74545 2.0441 8.94545 2.0441ZM8.94545 11.5115C12.3273 11.5115 15.8182 13.0177 15.8182 13.7708V13.986V14.9542C15.8182 15.5997 15.8182 15.3846 15.8182 16.0301C15.8182 17.3211 18 17.3211 18 16.0301V13.7708C18 10.9736 12 9.57501 9.05455 9.57501C6.10909 9.57501 0 10.9736 0 13.7708C0 14.8466 0 14.9542 0 16.0301C0 17.4287 2.18182 17.2135 2.18182 16.0301V14.9542V13.986V13.7708C2.18182 13.1253 5.67273 11.5115 8.94545 11.5115ZM8.94545 0C6.54545 0 4.47273 1.93652 4.47273 4.19579C4.47273 6.56264 6.43636 8.39158 8.94545 8.39158C11.4545 8.39158 13.4182 6.45506 13.4182 4.19579C13.5273 1.93652 11.4545 0 8.94545 0Z"/>
</svg>
