<svg width="20" height="13" viewBox="0 0 20 13" xmlns="http://www.w3.org/2000/svg">
<path d="M19.15 1.25273C18.6075 0.340364 18.0188 0.172545 16.82 0.108727C15.6225 0.0319091 12.6112 0 10.0025 0C7.38875 0 4.37625 0.0319092 3.18 0.107546C1.98375 0.172546 1.39375 0.339182 0.84625 1.25273C0.2875 2.16391 0 3.73336 0 6.49645C0 6.49882 0 6.5 0 6.5C0 6.50236 0 6.50355 0 6.50355V6.50591C0 9.25718 0.2875 10.8385 0.84625 11.7402C1.39375 12.6525 1.9825 12.818 3.17875 12.8948C4.37625 12.961 7.38875 13 10.0025 13C12.6112 13 15.6225 12.961 16.8212 12.896C18.02 12.8192 18.6087 12.6537 19.1513 11.7414C19.715 10.8396 20 9.25836 20 6.50709C20 6.50709 20 6.50355 20 6.50118C20 6.50118 20 6.49882 20 6.49764C20 3.73336 19.715 2.16391 19.15 1.25273ZM7.5 10.0455V2.95455L13.75 6.5L7.5 10.0455Z"/>
</svg>
