<svg width="233" height="70" viewBox="0 0 233 70" fill="none" xmlns="http://www.w3.org/2000/svg">
<g clip-path="url(#clip0)">
<path d="M117.817 24.1918C116.177 25.76 114.319 27.5378 113.377 29.624C113.094 30.2489 113.152 30.9727 113.53 31.5471C113.909 32.1214 114.556 32.4678 115.25 32.4678H122.378C123.51 32.4678 124.428 31.5623 124.428 30.4463C124.428 29.3297 123.51 28.4248 122.378 28.4248H119.309C119.758 27.9689 120.225 27.5215 120.673 27.0929C122.688 25.1652 124.429 23.5001 124.429 21.4159C124.429 18.3326 121.884 15.8242 118.757 15.8242C116.471 15.8242 114.421 17.165 113.533 19.2407C113.093 20.2694 113.582 21.4549 114.626 21.8887C115.67 22.323 116.873 21.8402 117.312 20.8116C117.558 20.2378 118.124 19.8672 118.757 19.8672C119.609 19.8672 120.305 20.5405 120.327 21.3765C120.169 21.9408 118.756 23.2932 117.817 24.1918Z" fill="black"/>
<path d="M87.591 23.6402L88.4594 22.7837V28.4085H87.0255C85.8927 28.4085 84.9747 29.3135 84.9747 30.43C84.9747 31.5466 85.8927 32.4515 87.0255 32.4515H93.9938C95.126 32.4515 96.0446 31.5466 96.0446 30.43C96.0446 29.3135 95.126 28.4085 93.9938 28.4085H92.561V17.9C92.561 17.0824 92.0611 16.3449 91.2947 16.0327C90.5283 15.7195 89.6461 15.8932 89.0597 16.4713L84.6895 20.7827C83.8889 21.5723 83.8895 22.8526 84.6911 23.6417C85.4922 24.4303 86.7905 24.4303 87.591 23.6402Z" fill="black"/>
<path d="M147.781 35.6443C146.12 35.6443 144.559 36.2823 143.384 37.4404C142.21 38.5986 141.563 40.1384 141.563 41.7756C141.563 45.1563 144.353 47.9069 147.781 47.9074C149.442 47.9074 151.004 47.2694 152.178 46.1112C153.353 44.9531 153.999 43.4133 153.999 41.7761C153.999 38.3949 151.21 35.6443 147.781 35.6443ZM149.278 43.2533C148.878 43.647 148.346 43.8644 147.781 43.8644C146.614 43.8644 145.665 42.9274 145.665 41.7761C145.665 41.2181 145.885 40.6932 146.285 40.299C146.685 39.9047 147.216 39.6878 147.781 39.6878C148.949 39.6878 149.898 40.6243 149.898 41.7761C149.898 42.3341 149.678 42.8584 149.278 43.2533Z" fill="black"/>
<path d="M118.843 47.9074C120.504 47.9074 122.065 47.2694 123.24 46.1112C124.414 44.9531 125.06 43.4138 125.06 41.7761C125.06 38.3954 122.271 35.6448 118.843 35.6448C118.842 35.6448 118.843 35.6448 118.842 35.6448C117.181 35.6448 115.62 36.2823 114.445 37.441C113.271 38.5986 112.625 40.1384 112.625 41.7761C112.625 45.1568 115.414 47.9074 118.843 47.9074ZM117.346 40.2989C117.746 39.9046 118.278 39.6872 118.843 39.6872C120.01 39.6872 120.959 40.6243 120.959 41.7761C120.959 42.3341 120.739 42.8584 120.339 43.2527C119.939 43.647 119.408 43.8644 118.843 43.8644C117.675 43.8644 116.726 42.9274 116.726 41.7756C116.726 41.2176 116.946 40.6932 117.346 40.2989Z" fill="black"/>
<path d="M102.774 41.9551C102.774 40.9012 101.908 40.0473 100.84 40.0473C99.7715 40.0473 98.9058 40.9012 98.9058 41.9551C98.9058 43.0084 99.7715 43.8628 100.84 43.8628C101.908 43.8628 102.774 43.0084 102.774 41.9551Z" fill="black"/>
<path d="M110.225 41.9551C110.225 40.9012 109.359 40.0473 108.291 40.0473C107.222 40.0473 106.356 40.9012 106.356 41.9551C106.356 43.0084 107.222 43.8628 108.291 43.8628C109.359 43.8628 110.225 43.0084 110.225 41.9551Z" fill="black"/>
<path d="M131.302 41.9547C131.302 40.9007 130.437 40.0469 129.368 40.0469C128.3 40.0469 127.434 40.9007 127.434 41.9547C127.434 43.008 128.3 43.8624 129.368 43.8624C130.437 43.8624 131.302 43.008 131.302 41.9547Z" fill="black"/>
<path d="M138.752 41.9551C138.752 40.9012 137.887 40.0473 136.818 40.0473C135.75 40.0473 134.884 40.9012 134.884 41.9551C134.884 43.0084 135.75 43.8628 136.818 43.8628C137.887 43.8628 138.752 43.0084 138.752 41.9551Z" fill="black"/>
<path d="M124.131 51.0791H113.934C112.801 51.0791 111.883 51.984 111.883 53.1006C111.883 54.2171 112.801 55.1221 113.934 55.1221H124.131C125.264 55.1221 126.182 54.2171 126.182 53.1006C126.182 51.984 125.264 51.0791 124.131 51.0791Z" fill="black"/>
<path d="M94.5642 35.9059L88.8813 41.524L87.5013 40.1631C86.7007 39.373 85.4024 39.373 84.6013 40.1621C83.7997 40.9512 83.7997 42.231 84.6003 43.0206L87.4324 45.8138C87.8169 46.1934 88.3387 46.4066 88.8829 46.4066H88.884C89.4282 46.4066 89.9505 46.1929 90.335 45.8128L97.4684 38.7607C98.2684 37.97 98.2663 36.6903 97.4641 35.9022C96.6625 35.1136 95.3637 35.1158 94.5642 35.9059Z" fill="black"/>
<path d="M147.721 32.5128C150.812 32.5128 153.304 30.0818 153.392 26.978C153.415 26.1852 153.302 24.1721 151.768 22.617C151.517 22.3617 151.195 22.0901 150.792 21.8421L152.846 19.1142C153.308 18.5009 153.38 17.6828 153.032 17.0006C152.684 16.3183 151.974 15.8877 151.2 15.8877H145.051C143.918 15.8877 143 16.7926 143 17.9092C143 19.0257 143.918 19.9307 145.051 19.9307H147.123L145.736 21.7716C145.274 22.3849 145.202 23.2024 145.551 23.8852C145.899 24.5674 146.608 24.9981 147.383 24.9981C148.055 24.9981 148.542 25.1455 148.828 25.4355C149.19 25.8035 149.305 26.4352 149.292 26.8648C149.267 27.765 148.576 28.4699 147.721 28.4699C147.089 28.4699 146.522 28.0993 146.277 27.526C145.837 26.4968 144.634 26.0146 143.59 26.4484C142.547 26.8822 142.058 28.0677 142.498 29.0963C143.385 31.172 145.435 32.5128 147.721 32.5128Z" fill="black"/>
</g>
<g clip-path="url(#clip1)">
<path d="M32.999 31.5L6.99902 17L32.999 1L59.999 17L32.999 31.5Z" fill="#EC691F"/>
<path d="M4.3774 46.8471L15.2112 40.7666L4.3774 34.6861C3.06217 33.9478 3.06372 32.0511 4.3774 31.3138L15.2107 25.233L4.37753 19.1529C3.0623 18.4146 3.06385 16.5179 4.37753 15.7806L32.0536 0.2475C32.6415 -0.0825 33.3585 -0.0825 33.9464 0.2475L61.6225 15.7807C62.9378 16.5191 62.9359 18.4158 61.6225 19.153L50.7888 25.2334L61.6226 31.3138C62.938 32.0522 62.936 33.9489 61.6226 34.6861L50.7888 40.7666L61.6226 46.8471C62.938 47.5855 62.936 49.4822 61.6226 50.2194L33.9464 65.7526C33.3587 66.0825 32.6415 66.0826 32.0536 65.7526L4.3774 50.2194C3.06205 49.481 3.06398 47.5843 4.3774 46.8471ZM33 4.15091L9.27442 17.4668L33 30.7827L56.7255 17.4668L33 4.15091ZM46.838 27.4507L33.9463 34.6861C33.3586 35.016 32.6414 35.0161 32.0534 34.6861L19.1611 27.4503L9.27417 32.9999L33 46.3159L56.7255 33L46.838 27.4507ZM33 61.8491L56.7256 48.5332L46.8381 42.9839L33.9464 50.2193C33.3587 50.5492 32.6415 50.5493 32.0536 50.2193L19.1619 42.9839L9.27442 48.5332L33 61.8491Z" fill="black"/>
<path d="M32.9999 41.8654C31.932 41.8654 31.0663 40.9997 31.0663 39.9318C31.0663 38.8639 31.932 37.9982 32.9999 37.9982C34.0678 37.9982 34.9335 38.8639 34.9335 39.9318C34.9335 40.9997 34.0678 41.8654 32.9999 41.8654Z" fill="black"/>
<path d="M40.0815 38.1603C39.0136 38.1603 38.1479 37.2946 38.1479 36.2267C38.1479 35.1588 39.0136 34.2932 40.0815 34.2932C41.1494 34.2932 42.0151 35.1588 42.0151 36.2267C42.0151 37.2946 41.1494 38.1603 40.0815 38.1603Z" fill="black"/>
<path d="M47.16 34.6184C46.0921 34.6184 45.2264 33.7527 45.2264 32.6848C45.2264 31.6169 46.0921 30.7512 47.16 30.7512C48.2279 30.7512 49.0936 31.6169 49.0936 32.6848C49.0936 33.7527 48.2279 34.6184 47.16 34.6184Z" fill="black"/>
<path d="M25.9205 38.1603C24.8526 38.1603 23.9869 37.2946 23.9869 36.2267C23.9869 35.1588 24.8526 34.2932 25.9205 34.2932C26.9884 34.2932 27.8541 35.1588 27.8541 36.2267C27.8541 37.2946 26.9884 38.1603 25.9205 38.1603Z" fill="black"/>
<path d="M18.8392 34.6184C17.7713 34.6184 16.9056 33.7527 16.9056 32.6848C16.9056 31.6169 17.7713 30.7512 18.8392 30.7512C19.9071 30.7512 20.7728 31.6169 20.7728 32.6848C20.7728 33.7527 19.9071 34.6184 18.8392 34.6184Z" fill="black"/>
</g>
<rect x="177" y="16" width="50" height="19" fill="#EC691F"/>
<rect x="180" y="29" width="43" height="30" fill="#EC691F"/>
<path d="M183.836 62H220.164C223.169 62 225.613 59.5554 225.613 56.5508V36.3281H227.43C228.433 36.3281 229.246 35.515 229.246 34.5117V19.9805C229.246 16.9758 226.802 14.5312 223.797 14.5312H213.308L215.146 13.2886C217.151 11.9344 218.348 9.6823 218.348 7.26562C218.348 3.25912 215.089 0 211.082 0C207.806 0 204.921 2.20712 204.068 5.36644L202 13.0176L199.932 5.36644C199.079 2.20712 196.194 0 192.918 0C188.911 0 185.652 3.25912 185.652 7.26562C185.652 9.6823 186.849 11.9344 188.854 13.2886L190.692 14.5312H180.203C177.198 14.5312 174.754 16.9758 174.754 19.9805V34.5117C174.754 35.515 175.567 36.3281 176.57 36.3281H178.387V56.5508C178.387 59.5554 180.831 62 183.836 62ZM182.02 56.5508V36.3281H196.551V58.3672H183.836C182.835 58.3672 182.02 57.5522 182.02 56.5508ZM200.184 18.1641C200.993 18.1641 202.59 18.1641 203.816 18.1641V58.3672H200.184V18.1641ZM221.98 56.5508C221.98 57.5522 221.165 58.3672 220.164 58.3672H207.449V36.3281H221.98V56.5508ZM225.613 19.9805V32.6953H207.449V20.733L215.247 28.5303C215.956 29.2399 217.106 29.2399 217.816 28.5303C218.525 27.8213 218.525 26.6714 217.816 25.9618L210.018 18.1641H223.797C224.798 18.1641 225.613 18.9791 225.613 19.9805ZM207.575 6.31438C208.001 4.73543 209.443 3.63281 211.082 3.63281C213.085 3.63281 214.715 5.26237 214.715 7.26562C214.715 8.4742 214.116 9.60046 213.112 10.2788L206.82 14.5312H205.354L207.575 6.31438ZM190.888 10.2788C189.884 9.60046 189.285 8.4742 189.285 7.26562C189.285 5.26237 190.915 3.63281 192.918 3.63281C194.557 3.63281 195.999 4.73543 196.425 6.31438L198.646 14.5312H197.18L190.888 10.2788ZM178.387 19.9805C178.387 18.9791 179.202 18.1641 180.203 18.1641H193.982L186.184 25.9618C185.475 26.6714 185.475 27.8213 186.184 28.5303C186.894 29.2399 188.043 29.2399 188.753 28.5303L196.551 20.733V32.6953H178.387V19.9805Z" fill="black"/>
<defs>
<clipPath id="clip0">
<rect width="70" height="69" fill="white" transform="translate(84 1)"/>
</clipPath>
<clipPath id="clip1">
<rect width="66" height="66" fill="white" transform="matrix(-1 0 0 1 66 0)"/>
</clipPath>
</defs>
</svg>
