<svg width="246" height="47" viewBox="0 0 246 47" fill="none" xmlns="http://www.w3.org/2000/svg">
<path fill-rule="evenodd" clip-rule="evenodd" d="M64.1233 12.9912V27.2236H59.4597V12.9912H51.2153V9.43311H72.4509V12.9912H64.1233Z" fill="#EC691F"/>
<path fill-rule="evenodd" clip-rule="evenodd" d="M73.7002 27.2236V9.43311H93.7699V12.8257H78.3637V16.7148H93.3535V19.7764H78.3637V23.831H93.7699V27.2236H73.7002Z" fill="#EC691F"/>
<path fill-rule="evenodd" clip-rule="evenodd" d="M112.759 27.2236L103.598 19.6109H100.767V27.2236H96.02V9.43311H100.767V16.0528H103.515L112.092 9.43311H119.171L107.596 17.7905L119.671 27.2236H112.759Z" fill="#EC691F"/>
<path fill-rule="evenodd" clip-rule="evenodd" d="M134.574 27.2236H125.83C120.417 27.2236 118.668 25.7341 118.668 20.9348V15.8873C118.668 10.6743 120.5 9.26758 126.329 9.26758H134.157C138.821 9.26758 141.736 10.5088 141.736 15.4736H136.989C136.989 13.5704 135.906 12.8257 133.241 12.8257H127.162C123.998 12.8257 123.331 13.3222 123.331 16.1355V20.5211C123.331 23.2517 124.414 23.7482 127.162 23.7482H133.241C136.073 23.7482 136.989 23.2517 136.989 21.1003H141.736C141.652 25.8169 140.403 27.2236 134.574 27.2236Z" fill="#EC691F"/>
<path fill-rule="evenodd" clip-rule="evenodd" d="M155.31 12.9912V27.2236H150.563V12.9912H142.402V9.43311H163.638V12.9912H155.31Z" fill="#7E8186"/>
<path fill-rule="evenodd" clip-rule="evenodd" d="M180.879 27.2236L178.381 22.7553H166.722L164.141 27.2236H158.645L169.054 9.43311H176.049L186.376 27.1409H180.879V27.2236ZM172.635 12.743H172.385L168.471 19.3627H176.299L172.635 12.743Z" fill="#7E8186"/>
<path fill-rule="evenodd" clip-rule="evenodd" d="M207.526 27.2236V12.9912H206.943L195.118 27.2236H187.04V9.43311H191.704V23.6655H192.37L204.362 9.43311H212.273V27.2236H207.526Z" fill="#7E8186"/>
<path fill-rule="evenodd" clip-rule="evenodd" d="M241.086 27.2236V12.9912H240.503L233.758 27.2236H227.013L220.267 12.9912H219.684V27.2236H214.938V9.43311H223.682L230.26 23.6655H230.51L237.006 9.43311H245.833V27.2236H241.086Z" fill="#7E8186"/>
<path fill-rule="evenodd" clip-rule="evenodd" d="M195.953 10.5916C195.87 11.5018 195.786 11.9983 195.703 12.3293V12.4948C197.452 11.9156 198.951 10.8398 199.95 9.43316C200.533 8.52295 201.033 7.61273 201.283 6.53703C201.533 5.62682 201.616 4.71661 201.533 3.8064C200.616 4.30288 199.201 5.04759 196.036 5.87506C196.12 8.35745 196.036 9.6814 195.953 10.5916Z" fill="#EC691F"/>
<path fill-rule="evenodd" clip-rule="evenodd" d="M17.738 18.949C10.9926 19.6109 7.49492 20.2729 5.07989 20.8521C2.66486 21.3486 1.58226 21.7624 0.749492 22.0106C0.416385 22.0933 0.249831 22.2588 0 22.3416C0.499662 27.5546 2.83141 32.1884 6.41232 35.581C7.91131 36.905 9.49357 38.0634 11.3257 39.0564C13.7407 40.2976 16.4888 41.125 19.3202 41.3733C18.9039 39.3046 18.4875 36.6567 18.0711 32.9331C17.4882 28.8786 17.2383 23.3345 17.738 18.949Z" fill="#C5C6C6"/>
<path fill-rule="evenodd" clip-rule="evenodd" d="M21.3171 4.46831C21.8168 2.23415 22.2332 1.0757 22.5663 0.330986L22.6496 0H22.5663C18.0693 0.744718 14.072 2.97887 10.9908 6.04049C9.24197 7.94366 7.74299 10.1778 6.66039 12.5775C5.82762 14.6461 5.24468 16.8803 5.07812 19.1972C7.49316 18.287 11.2406 16.8803 19.3185 15.9701C20.068 9.92958 20.8175 6.70246 21.3171 4.46831Z" fill="#EC691F"/>
<path fill-rule="evenodd" clip-rule="evenodd" d="M41.7202 28.6303C41.8035 27.3891 41.8035 26.1479 41.7202 24.9067C41.6369 24.0792 41.5537 23.2517 41.3871 22.507C39.4717 22.0933 37.14 21.6796 33.5591 21.2658C31.727 21.0176 29.6451 20.7693 27.23 20.6038C24.815 20.4384 22.1501 20.5211 19.7351 20.6038C19.4853 24.1619 19.402 28.4648 19.6518 32.1056C19.9017 35.7465 20.1515 38.3943 20.4013 40.7112C20.7344 43.6074 20.9843 45.5933 21.1508 47.0827C31.8103 46.8345 40.5543 38.8908 41.7202 28.6303Z" fill="#C5C6C6"/>
<path fill-rule="evenodd" clip-rule="evenodd" d="M26.2308 5.13035C25.7312 5.13035 25.2315 5.04761 24.7318 5.04761C23.8991 5.04761 23.1496 5.13035 22.4001 5.13035C22.067 7.28176 21.5673 10.4261 20.9844 17.8733C24.5653 17.6251 28.3127 17.7906 31.4773 18.2043C34.6418 18.618 37.0568 19.1973 39.0555 19.6937C41.8036 20.3557 43.6357 20.9349 44.8848 21.4314C42.9695 12.6603 35.3913 5.95782 26.2308 5.13035Z" fill="#C5C6C6"/>
<path d="M59.207 33.926H64.2869V40.2975H63.5374V34.588H59.8733V40.2975H59.207V33.926Z" fill="#7E8186"/>
<path d="M68.9516 37.4014C70.0342 37.4014 70.7004 36.8222 70.7004 35.9947C70.7004 35.0845 70.0342 34.588 68.9516 34.588H67.3693V37.4014H68.9516ZM66.7031 33.926H69.1181C70.5339 33.926 71.5332 34.6707 71.5332 35.9947C71.5332 37.4014 70.3673 38.0634 69.0349 38.0634H67.4526V40.2975H66.7031V33.926Z" fill="#7E8186"/>
<path d="M78.9466 37.1531C78.9466 35.7464 77.864 34.5052 76.4483 34.5052C74.9493 34.5052 73.95 35.6637 73.95 37.1531C73.95 38.5598 75.0326 39.801 76.4483 39.801C77.864 39.801 78.9466 38.6426 78.9466 37.1531ZM73.1172 37.1531C73.1172 35.4154 74.4496 33.8433 76.365 33.8433C78.2803 33.8433 79.6128 35.3327 79.6128 37.1531C79.6128 38.8908 78.2803 40.463 76.365 40.463C74.4496 40.463 73.1172 38.8908 73.1172 37.1531Z" fill="#7E8186"/>
<path d="M81.7778 33.926H82.5273V39.2218L86.3581 33.926H87.0243V40.2975H86.3581V35.0017L82.5273 40.2975H81.7778V33.926Z" fill="#7E8186"/>
<path d="M88.9414 39.3873L89.3578 38.8908C90.024 39.47 90.6902 39.801 91.6063 39.801C92.3557 39.801 93.1052 39.3045 93.1052 38.5598C93.1052 37.7323 92.3557 37.4014 91.3564 37.4014H90.6902V36.8221H91.3564C92.2725 36.8221 92.9387 36.4084 92.9387 35.5809C92.9387 34.919 92.3558 34.4225 91.523 34.4225C90.7735 34.4225 90.1906 34.6707 89.6076 35.1672L89.1912 34.6707C89.8574 34.0915 90.5237 33.8433 91.523 33.8433C92.7721 33.8433 93.6882 34.588 93.6882 35.5809C93.6882 36.4084 93.1052 36.9049 92.5223 37.0704C93.2718 37.3186 93.8547 37.8151 93.8547 38.6426C93.8547 39.6355 92.9387 40.463 91.6063 40.463C90.5237 40.463 89.6909 40.132 88.9414 39.3873Z" fill="#7E8186"/>
<path d="M98.765 39.7183C99.7643 39.7183 100.347 39.3045 100.347 38.5598C100.347 37.8979 99.7643 37.4841 98.6817 37.4841H96.5998V39.7183H98.765ZM98.5152 36.8222C99.348 36.8222 100.014 36.4084 100.014 35.6637C100.014 35.0017 99.5145 34.588 98.5985 34.588H96.5998V36.8222H98.5152ZM95.9336 33.926H98.6817C99.4312 33.926 100.014 34.0915 100.347 34.5053C100.597 34.7535 100.764 35.0845 100.764 35.581C100.764 36.4084 100.264 36.8222 99.7643 37.0704C100.514 37.3186 101.097 37.7324 101.097 38.6426C101.097 39.7183 100.181 40.3802 98.765 40.3802H95.9336V33.926Z" fill="#7E8186"/>
<path d="M108.677 37.1531C108.677 35.7464 107.594 34.5052 106.178 34.5052C104.763 34.5052 103.68 35.6637 103.68 37.1531C103.68 38.5598 104.763 39.801 106.178 39.801C107.594 39.801 108.677 38.6426 108.677 37.1531ZM102.847 37.1531C102.847 35.4154 104.18 33.8433 106.095 33.8433C108.01 33.8433 109.343 35.3327 109.343 37.1531C109.343 38.8908 108.01 40.463 106.095 40.463C104.18 40.463 102.847 38.8908 102.847 37.1531Z" fill="#7E8186"/>
<path d="M115.672 39.6355V34.588H112.924V35.4155C112.924 37.0704 112.591 38.8081 112.091 39.6355H115.672ZM110.509 39.6355H111.175C111.758 38.6426 112.174 37.0704 112.174 35.0017V33.926H116.338V39.6355H117.171L117.088 41.7042H116.505V40.2975H111.342L111.175 41.7042H110.592L110.509 39.6355Z" fill="#7E8186"/>
<path d="M118.585 37.1531C118.585 35.3327 119.917 33.8433 121.833 33.8433C122.999 33.8433 123.665 34.257 124.331 34.8362L123.831 35.3327C123.332 34.8362 122.666 34.4225 121.833 34.4225C120.417 34.4225 119.334 35.5809 119.334 37.0704C119.334 38.5598 120.417 39.7183 121.833 39.7183C122.749 39.7183 123.248 39.3873 123.915 38.808L124.414 39.3045C123.748 39.9665 122.999 40.3802 121.833 40.3802C120.001 40.463 118.585 38.9735 118.585 37.1531Z" fill="#7E8186"/>
<path d="M127.914 34.588H125.833V33.926H130.829V34.588H128.664V40.2975H127.914V34.588Z" fill="#7E8186"/>
<path d="M135.659 39.7183C136.658 39.7183 137.241 39.3045 137.241 38.5598C137.241 37.8979 136.658 37.4841 135.576 37.4841H133.577V39.7183H135.659ZM135.409 36.8222C136.242 36.8222 136.908 36.4084 136.908 35.6637C136.908 35.0017 136.409 34.588 135.492 34.588H133.577V36.8222H135.409ZM132.828 33.926H135.576C136.325 33.926 136.908 34.0915 137.241 34.5053C137.491 34.7535 137.658 35.0845 137.658 35.581C137.658 36.4084 137.158 36.8222 136.658 37.0704C137.408 37.3186 137.991 37.7324 137.991 38.6426C137.991 39.7183 137.075 40.3802 135.659 40.3802H132.828V33.926Z" fill="#7E8186"/>
<path d="M140.07 33.926H144.651V34.588H140.737V36.8222H144.234V37.4841H140.737V39.6355H144.734V40.2975H140.07V33.926Z" fill="#7E8186"/>
<path d="M146.82 33.926H147.487V36.8222H151.234V33.926H151.9V40.2975H151.234V37.4841H147.487V40.2975H146.82V33.926Z" fill="#7E8186"/>
<path d="M154.396 33.926H155.062V36.8222H158.809V33.926H159.475V40.2975H158.809V37.4841H155.062V40.2975H154.396V33.926Z" fill="#7E8186"/>
<path d="M167.47 37.1531C167.47 35.7464 166.387 34.5052 164.972 34.5052C163.473 34.5052 162.473 35.6637 162.473 37.1531C162.473 38.5598 163.556 39.801 164.972 39.801C166.387 39.801 167.47 38.6426 167.47 37.1531ZM161.641 37.1531C161.641 35.4154 162.973 33.8433 164.888 33.8433C166.804 33.8433 168.136 35.3327 168.136 37.1531C168.136 38.8908 166.804 40.463 164.888 40.463C162.973 40.463 161.641 38.8908 161.641 37.1531Z" fill="#7E8186"/>
<path d="M170.051 37.9806H172.549V37.2358H170.051V37.9806Z" fill="#7E8186"/>
<path d="M175.548 34.588H173.383V33.926H178.463V34.588H176.298V40.2975H175.548V34.588Z" fill="#7E8186"/>
<path d="M185.458 37.1531C185.458 35.7464 184.375 34.5052 182.959 34.5052C181.46 34.5052 180.461 35.6637 180.461 37.1531C180.461 38.5598 181.544 39.801 182.959 39.801C184.375 39.801 185.458 38.6426 185.458 37.1531ZM179.711 37.1531C179.711 35.4154 181.044 33.8433 182.959 33.8433C184.875 33.8433 186.207 35.3327 186.207 37.1531C186.207 38.8908 184.875 40.463 182.959 40.463C180.961 40.463 179.711 38.8908 179.711 37.1531Z" fill="#7E8186"/>
<path d="M190.622 37.4014C191.704 37.4014 192.371 36.8222 192.371 35.9947C192.371 35.0845 191.704 34.588 190.622 34.588H189.04V37.4014H190.622ZM188.373 33.926H190.788C192.204 33.926 193.203 34.6707 193.203 35.9947C193.203 37.4014 192.037 38.0634 190.705 38.0634H189.04V40.2975H188.29V33.926H188.373Z" fill="#7E8186"/>
<path d="M195.118 33.926H199.198V34.588H195.784V40.2975H195.118V33.926Z" fill="#7E8186"/>
<path d="M206.113 37.1531C206.113 35.7464 205.031 34.5052 203.615 34.5052C202.116 34.5052 201.117 35.6637 201.117 37.1531C201.117 38.5598 202.199 39.801 203.615 39.801C205.114 39.801 206.113 38.6426 206.113 37.1531ZM200.367 37.1531C200.367 35.4154 201.7 33.8433 203.615 33.8433C205.53 33.8433 206.863 35.3327 206.863 37.1531C206.863 38.8908 205.53 40.463 203.615 40.463C201.7 40.463 200.367 38.8908 200.367 37.1531Z" fill="#7E8186"/>
<path d="M211.939 39.7183C212.938 39.7183 213.521 39.3045 213.521 38.5598C213.521 37.8979 212.938 37.4841 211.855 37.4841H209.857V39.7183H211.939ZM211.606 36.8222C212.438 36.8222 213.104 36.4084 213.104 35.6637C213.104 35.0017 212.605 34.588 211.689 34.588H209.773V36.8222H211.606ZM209.024 33.926H211.772C212.522 33.926 213.104 34.0915 213.438 34.5053C213.687 34.7535 213.854 35.0845 213.854 35.581C213.854 36.4084 213.354 36.8222 212.855 37.0704C213.604 37.3186 214.187 37.7324 214.187 38.6426C214.187 39.7183 213.271 40.3802 211.855 40.3802H209.024V33.926Z" fill="#7E8186"/>
<path d="M220.27 37.9806L218.855 34.7535L217.356 37.9806H220.27ZM218.438 33.926H219.104L222.019 40.3802H221.27L220.52 38.7253H217.022L216.273 40.3802H215.523L218.438 33.926Z" fill="#7E8186"/>
<path d="M228.011 37.3186V34.6707H226.012C224.93 34.6707 224.347 35.1672 224.347 35.9947C224.347 36.8222 225.013 37.3186 226.012 37.3186H228.011ZM225.43 37.7324C224.43 37.5669 223.681 36.9049 223.681 35.8292C223.681 35.3327 223.847 34.8362 224.18 34.588C224.597 34.1743 225.263 33.926 226.012 33.926H228.761V40.2975H228.011V37.8979H226.179L224.264 40.2975H223.348L225.43 37.7324Z" fill="#7E8186"/>
<path d="M234.508 33.926H238.672V34.588H235.257V40.2975H234.508V33.926Z" fill="#7E8186"/>
<path d="M240.586 33.926H241.252V37.7324L245 33.926H245.916L243.168 36.7394L245.999 40.2975H245.083L242.668 37.2359L241.252 38.6426V40.2975H240.586V33.926Z" fill="#7E8186"/>
</svg>
