<?xml version="1.0" encoding="utf-8"?><svg viewBox="0 0 50 48" xmlns="http://www.w3.org/2000/svg" xmlns:xlink="http://www.w3.org/1999/xlink"><style>:root>svg{display:none}:root>svg:target{display:block}</style><svg viewBox="0 0 36 8" id="ic_arrow" xmlns="http://www.w3.org/2000/svg"><rect y="3" width="33" height="2" rx="1"/><rect width="5.831" height="1.944" rx=".972" transform="scale(1.029 .97013) rotate(45 15.264 36.851)"/><rect width="5.831" height="1.944" rx=".972" transform="matrix(.72761 -.68599 .72761 .68599 30 6.667)"/></svg><svg viewBox="0 0 19 8" id="ic_arrow_left" xmlns="http://www.w3.org/2000/svg"><rect width="16" height="2" rx="1" transform="matrix(-1 0 0 1 18.657 3)"/><rect width="5.831" height="1.944" rx=".972" transform="matrix(-.7276 .686 .7276 .686 4.243 0)"/><rect width="5.831" height="1.944" rx=".972" transform="matrix(-.7276 -.686 -.7276 .686 5.657 6.667)"/></svg><svg viewBox="0 0 19 19" id="ic_cart" xmlns="http://www.w3.org/2000/svg"><path d="M13.338 10.083c.687 0 1.292-.376 1.604-.944l3.281-5.949a.913.913 0 0 0-.797-1.357H3.859L2.998 0H0v1.833h1.833l3.3 6.958-1.237 2.236c-.67 1.229.21 2.723 1.604 2.723h11v-1.833h-11l1.008-1.834h6.83zM4.73 3.667h11.137l-2.53 4.583H6.904L4.73 3.667zm.77 11A1.83 1.83 0 0 0 3.676 16.5 1.83 1.83 0 0 0 5.5 18.333 1.839 1.839 0 0 0 7.333 16.5 1.839 1.839 0 0 0 5.5 14.667zm9.167 0a1.83 1.83 0 0 0-1.825 1.833 1.83 1.83 0 0 0 1.825 1.833A1.839 1.839 0 0 0 16.5 16.5a1.839 1.839 0 0 0-1.833-1.833z"/></svg><svg viewBox="0 0 15 12" id="ic_catalog" xmlns="http://www.w3.org/2000/svg"><path d="M0 0h15v2H0zM0 5h15v2H0zM0 10h15v2H0z"/></svg><svg viewBox="0 0 15 19" id="ic_change_pass" xmlns="http://www.w3.org/2000/svg"><path d="M13.2 7.322h-.667V5.444A5.04 5.04 0 0 0 7.5.408 5.039 5.039 0 0 0 2.469 5.44v1.878h-.664c-.657 0-1.192.534-1.192 1.191v8.892c0 .656.535 1.19 1.192 1.19h11.4c.656 0 1.19-.534 1.19-1.19V8.509a1.197 1.197 0 0 0-1.194-1.187zM3.984 5.44A3.52 3.52 0 0 1 7.5 1.922a3.52 3.52 0 0 1 3.518 3.518v1.874H3.983V5.44zm8.891 11.638H2.127V8.836h10.751v8.242h-.004z"/><path d="M7.5 15.945c.419 0 .757-.337.757-.757v-1.952a.755.755 0 0 0-.757-.757.755.755 0 0 0-.757.758v1.951c0 .416.337.757.757.757z"/></svg><svg viewBox="0 0 17 13" id="ic_email" xmlns="http://www.w3.org/2000/svg"><path d="M14.857 0H1.973A1.974 1.974 0 0 0 0 1.972v8.415c0 1.088.885 1.972 1.972 1.972h12.886a1.975 1.975 0 0 0 1.972-1.972V1.972A1.975 1.975 0 0 0 14.858 0zm.658 10.387a.658.658 0 0 1-.658.657H1.973a.658.658 0 0 1-.657-.657V1.972c0-.362.295-.657.657-.657h12.886c.362 0 .657.295.657.657v8.415z"/><path d="M15.402.82L8.414 6.018 1.425.82.641 1.875l7.773 5.782 7.773-5.782L15.402.82z"/></svg><svg viewBox="0 0 9 16" id="ic_facebook" xmlns="http://www.w3.org/2000/svg"><path d="M8.661.003L6.502 0C4.077 0 2.51 1.546 2.51 3.938v1.815H.34A.333.333 0 0 0 0 6.08v2.63c0 .18.152.326.34.326h2.17v6.638c0 .18.152.326.34.326H5.68c.188 0 .34-.146.34-.326V9.036h2.537c.188 0 .34-.146.34-.326V6.08a.32.32 0 0 0-.099-.231.347.347 0 0 0-.24-.096H6.021V4.214c0-.74.183-1.115 1.186-1.115H8.66c.187 0 .339-.147.339-.327V.33a.333.333 0 0 0-.339-.327z"/></svg><svg viewBox="0 0 16 14" id="ic_favorite" xmlns="http://www.w3.org/2000/svg"><path d="M11.6 0C10.208 0 8.872.618 8 1.595 7.128.618 5.792 0 4.4 0 1.936 0 0 1.846 0 4.196 0 7.08 2.72 9.43 6.84 13.001L8 14l1.16-1.007C13.28 9.43 16 7.08 16 4.196 16 1.846 14.064 0 11.6 0zM8.08 11.864L8 11.94l-.08-.076C4.112 8.575 1.6 6.4 1.6 4.196c0-1.526 1.2-2.67 2.8-2.67 1.232 0 2.432.755 2.856 1.8h1.496c.416-1.045 1.616-1.8 2.848-1.8 1.6 0 2.8 1.144 2.8 2.67 0 2.205-2.512 4.38-6.32 7.668z"/></svg><svg viewBox="0 0 17 20" id="ic_location" xmlns="http://www.w3.org/2000/svg"><path d="M7.903 10.397a.781.781 0 0 1 .21-1.549 2.112 2.112 0 0 0 2.396-2.09c-.001-1.163-.947-2.11-2.11-2.11a2.112 2.112 0 0 0-2.082 2.453.781.781 0 0 1-1.542.251 3.676 3.676 0 0 1 3.624-4.266 3.676 3.676 0 0 1 3.671 3.672 3.676 3.676 0 0 1-4.167 3.639zM1.26 15.493c.6-.316 1.425-.581 2.452-.79a.781.781 0 1 1 .31 1.532c-1.582.321-2.231.707-2.419.895.138.138.6.485 1.954.81 1.331.321 3.05.498 4.841.498 1.791 0 3.51-.177 4.841-.497 1.355-.326 1.817-.673 1.955-.811-.188-.188-.837-.574-2.42-.895a.781.781 0 0 1 .311-1.532c1.027.209 1.852.474 2.453.79.835.438 1.259.99 1.259 1.638 0 .97-.944 1.72-2.806 2.23-1.504.412-3.49.64-5.593.64-2.102 0-4.088-.228-5.592-.64C.944 18.85 0 18.1 0 17.13c0-.649.424-1.2 1.26-1.638z"/><path d="M9.059 16.511a.781.781 0 0 1-1.32 0c-.717-1.133-1.65-2.127-2.551-3.088-1.762-1.879-3.584-3.82-3.586-6.705a6.644 6.644 0 0 1 2-4.767A6.799 6.799 0 0 1 8.398 0a6.74 6.74 0 0 1 4.78 1.953 6.67 6.67 0 0 1 1.978 4.767c-.003 2.887-1.815 4.833-3.569 6.714-.892.958-1.815 1.948-2.528 3.077zm-.66-14.948c-2.884 0-5.232 2.313-5.235 5.155.002 2.266 1.467 3.827 3.163 5.636.703.748 1.422 1.516 2.071 2.372.643-.85 1.353-1.613 2.046-2.357 1.689-1.812 3.147-3.378 3.15-5.65-.004-2.891-2.286-5.157-5.196-5.157z"/></svg><svg viewBox="0 0 18 18" id="ic_logout" xmlns="http://www.w3.org/2000/svg"><path d="M10.4 11.7c0-.4.3-.8.8-.8.4 0 .8.3.8.8v4.6c0 .4-.3.8-.8.8H.8c-.5-.1-.8-.4-.8-.8V.8C0 .3.3 0 .8 0h10.4c.4 0 .8.3.8.8V5c0 .4-.3.8-.8.8-.4 0-.8-.3-.8-.8V1.5H1.5v14h8.9v-3.8zm4.35-3.9h-8.7c-.4 0-.8.3-.8.8 0 .4.3.8.8.8h8.7l-1 1c-.3.3-.3.8 0 1.1.3.3.8.3 1.1 0l2.3-2.5c.2-.3.2-.7 0-1l-2.3-2.3c-.3-.3-.8-.3-1.1 0-.3.3-.3.8 0 1.1l1 1z"/></svg><svg fill="none" viewBox="0 0 36 36" id="ic_notice" xmlns="http://www.w3.org/2000/svg"><circle cx="18" cy="18" r="17" stroke="currentColor" stroke-width="2"/><path fill="currentColor" d="M17 14h2v10h-2zM17 10h2v2h-2z"/><path fill="currentColor" d="M15 14h6v2h-6zM15 23h6v2h-6z"/></svg><svg viewBox="0 0 25 25" id="ic_pdf" xmlns="http://www.w3.org/2000/svg"><path d="M2.5 5H0v17.5A2.5 2.5 0 0 0 2.5 25H20v-2.5H2.5V5zM10 8.125H8.75v1.25H10v-1.25z"/><path d="M22.5 0h-15A2.5 2.5 0 0 0 5 2.5v15A2.5 2.5 0 0 0 7.5 20h15a2.5 2.5 0 0 0 2.5-2.5v-15A2.5 2.5 0 0 0 22.5 0zM11.875 9.375A1.872 1.872 0 0 1 10 11.25H8.75v2.5H6.875v-7.5H10c1.037 0 1.875.837 1.875 1.875v1.25zm6.25 2.5a1.872 1.872 0 0 1-1.875 1.875h-3.125v-7.5h3.125c1.037 0 1.875.837 1.875 1.875v3.75zm5-3.75H21.25v1.25h1.875v1.875H21.25v2.5h-1.875v-7.5h3.75v1.875z"/><path d="M16.25 8.125H15v3.75h1.25v-3.75z"/></svg><svg fill="none" viewBox="0 0 21 20" id="ic_search" xmlns="http://www.w3.org/2000/svg"><circle cx="8.5" cy="8.5" r="7.5" stroke="currentColor" stroke-width="2"/><path stroke="currentColor" stroke-width="2" stroke-linecap="round" d="M14.082 13.667l4.919 4.919"/></svg><svg viewBox="0 0 50 48" id="ic_selection_check_icons1" xmlns="http://www.w3.org/2000/svg"><path d="M47.425 3.13H3.086c-.22 10.481.774 18.175 3.981 24.532 3.207 6.467 8.846 11.82 18.244 17.507C34.6 39.48 40.35 34.129 43.555 27.662c3.207-6.357 4.091-14.05 3.87-24.533zM25.311.9h24.326v1.114c.331 11.263-.664 19.626-4.092 26.651-3.538 7.025-9.62 12.712-19.681 18.734l-.553.334-.553-.334C14.696 41.377 8.615 35.69 5.077 28.665 1.538 21.64.654 13.277.875 2.015V.898h24.436z"/><path d="M15.122 14.071c0 .526-.42.946-.945.946a.941.941 0 0 1-.946-.946c0-1.155.525-2.31 1.26-3.046.736-.735 1.892-1.26 3.047-1.26 1.155 0 2.31.525 3.046 1.26.736.84 1.26 1.89 1.26 3.046s-.524 2.311-1.26 3.047c-.735.735-1.89 1.26-3.046 1.26H9.345c-.315 0-.736-.42-.736-.945 0-.526.42-.946.946-.946h8.193c.735 0 1.26-.315 1.786-.735a2.534 2.534 0 0 0 0-3.571 2.534 2.534 0 0 0-1.786-.736 3.89 3.89 0 0 0-1.89.84c-.42.42-.736 1.051-.736 1.786z"/><path d="M23.946 17.118c0 .525-.42.945-.946.945a.941.941 0 0 1-.945-.945c0-1.156.525-2.311 1.26-3.047.736-.735 1.891-1.26 3.046-1.26 1.156 0 2.311.525 3.047 1.26.735.84 1.26 1.891 1.26 3.047 0 1.155-.525 2.31-1.26 3.046-.736.735-1.891 1.26-3.047 1.26H9.45a.941.941 0 0 1-.946-.945c0-.525.42-.945.946-.945H26.36c.736 0 1.366-.316 1.786-.736a2.534 2.534 0 0 0 0-3.571 2.534 2.534 0 0 0-3.571 0c-.315.63-.63 1.26-.63 1.89zM24.26 26.887c0-.526.42-.946.946-.946.525 0 .945.42.945.946 0 .735.316 1.365.736 1.785a2.534 2.534 0 0 0 3.571 0 2.534 2.534 0 0 0 0-3.571 2.534 2.534 0 0 0-1.786-.735H9.66a.941.941 0 0 1-.946-.946c0-.525.42-.945.946-.945h19.012c1.156 0 2.311.525 3.047 1.26.735.736 1.26 1.891 1.26 3.047 0 1.155-.525 2.31-1.26 3.046-.736.735-1.891 1.26-3.047 1.26-1.155 0-2.31-.525-3.046-1.26-.945-.735-1.365-1.786-1.365-2.941zM33.084 7.349c0-.525.315-.946.84-.946.526 0 .946.316.946.84.21 1.786-.315 3.257-.84 4.623-.316.945-.63 1.995-.63 2.94 0 1.681 1.05 3.152 2.1 4.728 1.156 1.575 2.206 3.256 2.416 5.147.105 1.155-.315 2.31-.84 3.466-.525 1.155-1.05 2.521-.84 3.992.105.525-.316.945-.736 1.05-.525.105-.945-.315-1.05-.735-.315-1.996.42-3.572 1.05-4.937.42-.946.736-1.786.736-2.521-.21-1.576-1.156-2.941-2.101-4.307-1.26-1.786-2.416-3.571-2.416-5.777 0-1.26.42-2.416.735-3.572.315-1.26.735-2.52.63-3.991z"/></svg><svg viewBox="0 0 50 48" id="ic_selection_check_icons2" xmlns="http://www.w3.org/2000/svg"><path d="M47.425 3.13H3.086c-.22 10.481.774 18.175 3.981 24.532 3.207 6.467 8.846 11.82 18.244 17.507C34.6 39.48 40.35 34.129 43.555 27.662c3.207-6.357 4.091-14.05 3.87-24.533zM25.311.9h24.326v1.114c.331 11.263-.664 19.626-4.092 26.651-3.538 7.025-9.62 12.712-19.681 18.734l-.553.334-.553-.334C14.696 41.377 8.615 35.69 5.077 28.665 1.538 21.64.654 13.277.875 2.015V.898h24.436z"/><path d="M11.55 29.408a.941.941 0 0 1-.945-.946c0-.525.42-.945.945-.945h8.509c1.785 0 3.571-.945 5.462-1.89 1.996-1.051 4.097-1.997 6.197-1.997 1.471 0 3.047.42 4.622 1.156 1.366.735 2.626 1.68 3.677 3.046.315.42.21.945-.21 1.26-.42.316-.946.21-1.26-.21-.841-1.155-1.892-1.995-3.047-2.52-1.26-.63-2.626-.946-3.782-.946-1.785 0-3.571.945-5.462 1.89-1.996 1.051-4.096 1.997-6.197 1.997l-8.509.105zM18.695 15.017c.105 1.05.42 1.996.735 2.836.525 1.365.945 2.416.525 3.571-.315 1.05-1.05 1.891-1.89 2.311-.841.526-1.997.63-2.942.316-1.05-.316-1.89-1.051-2.31-1.891-.526-.84-.631-1.996-.316-2.942.42-1.26.946-1.785 2.206-2.73.63-.42 1.366-1.051 2.521-1.996l1.366-1.26.105 1.785zm-.946 3.466c-.21-.525-.42-1.05-.525-1.68-.525.42-.945.735-1.366 1.05-.945.735-1.365 1.05-1.575 1.786-.21.525-.105 1.155.105 1.575.21.42.735.84 1.26 1.05.526.21 1.156.106 1.576-.104.42-.21.84-.736 1.05-1.26.105-.526-.21-1.366-.525-2.417zM28.147 10.29c.105 1.05.42 1.996.735 2.836.42 1.26.84 2.416.525 3.572-.315 1.05-1.05 1.89-1.89 2.31-.84.526-1.996.63-2.942.316h-.105c-1.05-.316-1.785-1.05-2.31-1.891-.526-.84-.63-1.996-.316-2.941v-.105c.42-1.26.946-1.681 2.206-2.627.63-.42 1.366-1.05 2.521-1.995l1.366-1.26.21 1.785zm-.946 3.466c-.21-.525-.42-1.05-.525-1.68-.525.42-.945.735-1.365 1.05-.946.735-1.366 1.05-1.576 1.786-.105.525-.105 1.155.21 1.575.21.42.735.84 1.26 1.05.526.21 1.156.106 1.576-.21.42-.21.84-.735 1.05-1.26 0-.525-.314-1.365-.63-2.31zM36.446 13.336c.105 1.05.42 1.996.735 2.836.42 1.26.84 2.416.525 3.572-.315 1.05-1.05 1.89-1.89 2.31-.841.526-1.997.63-2.942.316-1.05-.315-1.89-1.05-2.31-1.891-.526-.84-.631-1.996-.316-2.941.42-1.26.945-1.786 2.206-2.731.63-.42 1.365-1.05 2.521-1.996l1.365-1.26.105 1.785zm-1.05 3.467c-.211-.526-.421-1.05-.526-1.681-.525.42-.945.735-1.366 1.05-.945.736-1.365 1.05-1.575 1.786-.21.525-.105 1.155.105 1.576.21.42.735.84 1.26 1.05.526.21 1.156.105 1.576-.105.42-.21.84-.735 1.05-1.26.21-.63-.105-1.471-.525-2.416z"/></svg><svg viewBox="0 0 50 48" id="ic_selection_check_icons3" xmlns="http://www.w3.org/2000/svg"><path d="M47.425 3.13H3.086c-.22 10.481.774 18.175 3.981 24.532 3.207 6.467 8.846 11.82 18.244 17.507C34.6 39.48 40.35 34.129 43.555 27.662c3.207-6.357 4.091-14.05 3.87-24.533zM25.311.9h24.326v1.114c.331 11.263-.664 19.626-4.092 26.651-3.538 7.025-9.62 12.712-19.681 18.734l-.553.334-.553-.334C14.696 41.377 8.615 35.69 5.077 28.665 1.538 21.64.654 13.277.875 2.015V.898h24.436z"/><path d="M23.84 6.403h6.513v18.908h-12.92v-12.5h1.05c1.26 0 2.416-.525 3.151-1.366.84-.84 1.366-1.89 1.366-3.15v-.421c0-.105 0-.315-.105-.42l-.21-1.05h1.155zm4.727 1.786h-3.676v.105c0 1.786-.736 3.361-1.891 4.517-.945.945-2.206 1.576-3.677 1.786v8.823h9.244V8.19z"/><path d="M12.496 24.89H38.23v8.3H11.655v-8.3h.84zm23.844 1.892H13.441v4.621h22.9v-4.621zM30.143 16.382a.941.941 0 0 1-.946-.945c0-.525.42-.945.946-.945h12.605c.525 0 .945.42.945.945 0 .525-.42.945-.945.945H30.143zM30.143 21.004a.941.941 0 0 1-.946-.945c0-.525.42-.946.946-.946h12.605c.525 0 .945.42.945.946 0 .525-.42.945-.945.945H30.143z"/></svg><svg viewBox="0 0 50 48" id="ic_selection_check_icons4" xmlns="http://www.w3.org/2000/svg"><path d="M47.425 3.13H3.086c-.22 10.481.774 18.175 3.981 24.532 3.207 6.467 8.846 11.82 18.244 17.507C34.6 39.48 40.35 34.129 43.555 27.662c3.207-6.357 4.091-14.05 3.87-24.533zM25.311.9h24.326v1.114c.331 11.263-.664 19.626-4.092 26.651-3.538 7.025-9.62 12.712-19.681 18.734l-.553.334-.553-.334C14.696 41.377 8.615 35.69 5.077 28.665 1.538 21.64.654 13.277.875 2.015V.898h24.436z"/><path d="M19.849 13.546h6.512v-1.05H19.85v1.05zm7.353 1.786h-8.299a.941.941 0 0 1-.945-.945V11.55c0-.525.42-.945.945-.945h8.299c.525 0 .945.42.945.945v2.837c0 .525-.42.945-.945.945zM14.912 15.122c.84 0 1.68.21 2.416.42.735.315 1.47.735 1.996 1.366.315.315.315.945 0 1.26-.21.21-.42.315-.63.315h-1.471v8.194c0 .42-.315.84-.735.945-.21.105-.526.105-.736.105-.315 0-.525.105-.84.105-1.786 0-3.361-.735-4.517-1.89-1.155-1.156-1.89-2.732-1.89-4.518 0-1.785.735-3.36 1.89-4.516 1.156-1.156 2.731-1.786 4.517-1.786zm.735 1.89c-.21 0-.525-.104-.735-.104-1.26 0-2.416.525-3.151 1.365-.84.84-1.366 1.89-1.366 3.151 0 1.26.525 2.416 1.366 3.152.84.84 1.89 1.365 3.15 1.365h.526v-8.298c0-.315 0-.525.21-.63zM39.177 19.744c.315.945.945 1.785 1.47 2.52.736 1.156 1.47 2.102 1.47 3.257 0 1.05-.524 2.1-1.26 2.731-.735.735-1.68 1.05-2.836 1.05-1.05 0-2.1-.525-2.73-1.26-.736-.735-1.051-1.68-1.051-2.836 0-1.366.525-1.89 1.47-3.151.526-.63 1.05-1.47 1.891-2.626l1.05-1.576.526 1.89zm-.105 3.571c-.316-.42-.63-.945-.946-1.47-.42.525-.735 1.05-1.05 1.365-.735.945-1.05 1.366-1.05 2.1 0 .631.21 1.156.525 1.472.315.42.84.63 1.47.63s1.156-.21 1.47-.525c.421-.316.631-.84.631-1.471.105-.525-.42-1.26-1.05-2.1z"/><path d="M28.042 16.593c4.097-5.358 8.193-5.253 12.395-1.786.42.315.42.945.105 1.26-.105.105-.315.21-.42.315-.315.105-.525.21-.735.316-.316.21-.526.315-1.156.525h-.525c-2.941-.84-4.517 1.26-5.987 3.256-.316.525-.736.945-1.05 1.366v6.722c0 .526-.421.946-.946.946H16.277a.941.941 0 0 1-.945-.946v-11.03c0-.524.42-.944.945-.944h11.765zm9.98-1.156c-2.837-1.786-5.568-1.365-8.404 2.206 0 .525-.42.84-.946.84h-11.45v9.244h11.66v-6.093c0-.21.105-.42.21-.63.42-.525.84-1.05 1.156-1.575 1.89-2.416 3.781-4.937 7.773-3.992z"/><path d="M22.055 14.702c0-.525.42-.946.945-.946.525 0 .945.42.945.946v2.626c0 .525-.42.945-.945.945a.941.941 0 0 1-.945-.945v-2.626z"/></svg><svg viewBox="0 0 50 47" id="ic_selection_check_icons5" xmlns="http://www.w3.org/2000/svg"><path d="M47.425 2.306H3.086c-.22 10.482.774 18.176 3.981 24.532 3.207 6.468 8.846 11.82 18.244 17.507 9.288-5.687 15.038-11.04 18.244-17.507 3.207-6.356 4.091-14.05 3.87-24.532zM25.311.076h24.326V1.19c.331 11.262-.664 19.626-4.092 26.65-3.538 7.026-9.62 12.713-19.681 18.734l-.553.335-.553-.335C14.696 40.554 8.615 34.867 5.077 27.842 1.538 20.817.654 12.453.875 1.19V.076h24.436z"/><path d="M23.737 11.882c.21-.42.736-.63 1.26-.42.421.21.631.735.421 1.26l-4.202 8.719 10.505-4.412c.42-.21 1.05 0 1.155.526a1.16 1.16 0 0 1 0 .84L25.733 31.42c-.21.42-.84.63-1.26.315-.42-.21-.63-.84-.316-1.26L30.04 19.76l-10.19 4.307c-.21.105-.524.105-.84 0-.42-.21-.63-.735-.42-1.26l5.147-10.925z"/><path d="M15.754 32.365a.941.941 0 0 1-.945-.945c0-.525.42-.945.945-.945h1.05l18.803-.42c.525 0 .945.42.945.945 0 .525-.42.945-.945.945l-18.803.315H16.7l-.945.105zM25.628 6.63c.945 0 1.786.42 2.416.946v.105c.63.63.945 1.47.945 2.31 0 .946-.42 1.786-.945 2.417h-.105c-.63.63-1.47.945-2.311.945-.945 0-1.786-.42-2.416-.945-.63-.63-.945-1.471-.945-2.416 0-.946.42-1.786.945-2.416.63-.526 1.47-.946 2.416-.946zm1.05 2.311c-.315-.315-.63-.42-1.05-.42-.42 0-.84.21-1.05.42-.316.315-.42.63-.42 1.05 0 .42.21.84.42 1.051.315.315.63.42 1.05.42.42 0 .735-.21 1.05-.42.316-.315.42-.63.42-1.05 0-.316-.104-.736-.42-1.05z"/></svg><svg viewBox="0 0 50 47" id="ic_selection_check_icons6" xmlns="http://www.w3.org/2000/svg"><path d="M47.425 2.306H3.086c-.22 10.482.774 18.176 3.981 24.532 3.207 6.468 8.846 11.82 18.244 17.507 9.288-5.687 15.038-11.04 18.244-17.507 3.207-6.356 4.091-14.05 3.87-24.532zM25.311.076h24.326V1.19c.331 11.262-.664 19.625-4.092 26.65-3.538 7.026-9.62 12.713-19.681 18.734l-.553.335-.553-.335C14.696 40.554 8.615 34.867 5.077 27.842 1.538 20.817.654 12.453.875 1.19V.076h24.436z"/><path d="M25.842 15.559c2.836 0 5.357.84 7.563 2.31 2.206 1.471 3.991 3.677 4.937 6.198l.525 1.26h-26.05l.525-1.26c1.05-2.52 2.73-4.727 4.937-6.197 2.1-1.47 4.727-2.311 7.563-2.311zm6.512 3.781c-1.89-1.26-4.096-1.995-6.512-1.995-2.416 0-4.727.735-6.513 1.995-1.576 1.05-2.836 2.416-3.677 4.097h20.484c-.946-1.576-2.206-3.046-3.782-4.097z"/><path d="M22.585 29.74c.525 0 .946.42.946.945 0 .525-.42.945-.946.945-.63 0-1.155.21-1.575.63-.42.42-.63.946-.63 1.576 0 .63.21 1.156.63 1.576.42.42.945.63 1.575.63s1.156-.21 1.576-.63c.42-.42.63-.946.63-1.576v-8.928c0-.526.42-.946.945-.946.526 0 .946.42.946.945v8.93c0 1.155-.42 2.1-1.155 2.835-.736.736-1.786 1.156-2.837 1.156-1.155 0-2.1-.42-2.836-1.156-.735-.735-1.155-1.785-1.155-2.836 0-1.155.42-2.1 1.155-2.836.63-.84 1.68-1.26 2.731-1.26zM17.753 9.887c0 .63.315 1.26.526 1.89.315.946.63 1.681.315 2.626-.21.736-.736 1.366-1.47 1.786-.631.315-1.471.42-2.312.21-.735-.21-1.365-.735-1.786-1.47-.315-.63-.42-1.471-.21-2.311.316-.946.736-1.26 1.681-1.996.42-.315.945-.735 1.68-1.366l1.366-1.26c0 .105.21 1.89.21 1.89zm-1.26 2.52c-.105-.21-.21-.525-.315-.735-.21.21-.42.315-.63.42-.63.42-.84.63-.946 1.05-.105.316 0 .631.105.841.105.21.42.42.63.525.316.106.63 0 .84-.105.21-.105.42-.42.526-.63.21-.21 0-.735-.21-1.365zM26.683 7.47c0 .63.315 1.261.525 1.891.315.946.63 1.681.315 2.626-.21.736-.735 1.366-1.47 1.786-.63.315-1.47.42-2.311.21-.736-.21-1.366-.735-1.786-1.47-.315-.63-.42-1.471-.21-2.311.315-.946.735-1.26 1.68-1.996.42-.315.946-.735 1.681-1.366l1.366-1.26c.105.105.21 1.89.21 1.89zm-1.26 2.522c-.106-.21-.21-.526-.316-.736-.21.21-.42.315-.63.42-.63.42-.84.63-.945 1.05-.105.316 0 .631.105.841.105.21.42.42.63.525.315.105.63 0 .84-.105.21-.105.42-.42.526-.63.21-.21.105-.735-.21-1.365zM36.03 9.781c0 .63.316 1.261.526 1.891.315.84.63 1.68.42 2.416v.105c-.21.736-.735 1.366-1.47 1.786-.63.315-1.366.42-2.102.315H33.3l-.105-.105a2.6 2.6 0 0 1-1.68-1.47c-.315-.63-.42-1.471-.21-2.311v-.105c.315-.946.735-1.261 1.575-1.996.42-.315.946-.736 1.68-1.366l1.367-1.26.105 2.1zm-1.26 2.416c-.105-.21-.105-.42-.21-.735l-.63.42c-.63.42-.84.63-.946 1.05-.105.316 0 .631.105.841.105.21.42.42.63.525.316.105.63 0 .84-.105.211-.105.421-.315.526-.63.105-.21-.105-.735-.315-1.366z"/></svg><svg viewBox="0 0 50 47" id="ic_selection_check_icons7" xmlns="http://www.w3.org/2000/svg"><path d="M47.425 2.306H3.086c-.22 10.482.774 18.176 3.981 24.532 3.207 6.468 8.846 11.82 18.244 17.507 9.288-5.687 15.038-11.04 18.244-17.507 3.207-6.356 4.091-14.05 3.87-24.532zM25.311.076h24.326V1.19c.331 11.262-.664 19.625-4.092 26.65-3.538 7.026-9.62 12.713-19.681 18.734l-.553.335-.553-.335C14.696 40.554 8.615 34.867 5.077 27.842 1.538 20.817.654 12.453.875 1.19V.076h24.436z"/><path d="M26.36 7.996l7.878 13.655H16.906l8.719-15.02.735 1.365zm1.996 7.143l-2.731-4.727-5.567 9.559h11.029l-2.731-4.832z"/><path d="M26.36 16.294l8.928 15.546H15.856l9.768-16.912.736 1.366zm2.52 7.983l-3.256-5.672-6.617 11.45h13.13l-3.256-5.778z"/></svg><svg viewBox="0 0 50 47" id="ic_selection_check_icons8" xmlns="http://www.w3.org/2000/svg"><path d="M47.425 2.306H3.086c-.22 10.482.774 18.176 3.981 24.532 3.207 6.468 8.846 11.82 18.244 17.507 9.288-5.687 15.038-11.04 18.244-17.507 3.207-6.356 4.091-14.05 3.87-24.532zM25.311.076h24.326V1.19c.331 11.262-.664 19.625-4.092 26.65-3.538 7.026-9.62 12.713-19.681 18.734l-.553.335-.553-.335C14.696 40.554 8.615 34.867 5.077 27.842 1.538 20.817.654 12.453.875 1.19V.076h24.436z"/><path d="M25.99 10.832l7.562 4.412v9.243L25.57 29.11l-7.983-4.622v-9.243l7.983-4.622.42.21zm2.625 3.571l-3.046-1.785-6.197 3.571v7.143l6.197 3.571 6.198-3.571v-7.143l-3.152-1.786z"/><path d="M21.576 10.412c-.42-.21-.63-.84-.315-1.26.21-.42.84-.63 1.26-.316l3.572 1.996c.42.21.63.84.315 1.26-.315.42-.84.63-1.26.316l-3.572-1.996zM31.977 11.777c0-.525.42-.945.945-.945.525 0 .945.42.945.945v4.097c0 .525-.42.945-.945.945a.941.941 0 0 1-.945-.945v-4.097zM35.968 21.441c.42-.21 1.05-.105 1.26.315.21.42.106 1.05-.315 1.26l-3.57 1.997c-.421.21-1.051.105-1.261-.316-.21-.42-.105-1.05.315-1.26l3.571-1.996z"/><path d="M28.617 8.836c.42-.21 1.05-.105 1.26.315.21.42.105 1.05-.315 1.26l-3.571 1.997c-.42.21-1.05.105-1.261-.316-.21-.42-.105-1.05.315-1.26l3.572-1.996zM36.914 17.134c.42.21.63.84.315 1.261-.315.42-.84.63-1.26.315l-3.572-1.996c-.42-.21-.63-.84-.315-1.26.21-.42.84-.63 1.26-.315l3.572 1.995zM33.762 28.374c0 .525-.42.945-.945.945a.941.941 0 0 1-.945-.945v-4.097c0-.525.42-.945.945-.945.525 0 .945.42.945.945v4.097z"/><path d="M26.516 11.252c0 .525-.42.945-.946.945a.941.941 0 0 1-.945-.945V7.576c0-.526.42-.946.945-.946.526 0 .946.42.946.946v3.676zM33.658 16.504c-.42.21-1.05.105-1.26-.315-.21-.42-.105-1.05.315-1.26l3.151-1.786c.42-.21 1.05-.105 1.26.315.211.42.106 1.05-.314 1.26l-3.152 1.786zM32.712 25.328c-.42-.21-.63-.84-.315-1.26.21-.421.84-.631 1.26-.316l3.152 1.786c.42.21.63.84.315 1.26-.21.42-.84.63-1.26.315l-3.152-1.785zM22.522 31.42c-.42.21-1.05.105-1.26-.315-.21-.42-.106-1.05.314-1.26l3.572-1.996c.42-.21 1.05-.105 1.26.315.21.42.105 1.05-.315 1.26l-3.571 1.996zM14.225 23.017c-.42-.21-.63-.84-.316-1.26.316-.42.84-.631 1.261-.316l3.571 1.996c.42.21.63.84.316 1.26-.21.42-.84.63-1.26.316l-3.572-1.996zM17.376 11.777c0-.525.42-.945.945-.945.526 0 .946.42.946.945v4.097c0 .525-.42.945-.946.945a.941.941 0 0 1-.945-.945v-4.097z"/><path d="M29.56 29.74c.421.21.631.84.316 1.26-.21.42-.84.63-1.26.315l-3.572-1.996c-.42-.21-.63-.84-.315-1.26.315-.42.84-.63 1.26-.315l3.572 1.995zM19.16 28.374c0 .525-.42.945-.945.945a.941.941 0 0 1-.945-.945v-4.097c0-.525.42-.945.945-.945.525 0 .945.42.945.945v4.097zM15.17 18.71c-.42.21-1.05.105-1.26-.315-.21-.42-.105-1.05.315-1.26l3.571-1.996c.42-.21 1.05-.105 1.26.315.21.42.106 1.05-.314 1.26L15.17 18.71z"/><path d="M24.625 28.9c0-.526.42-.946.945-.946.526 0 .946.42.946.945v3.677c0 .525-.42.945-.946.945a.941.941 0 0 1-.945-.945v-3.677zM17.481 23.752c.42-.21 1.05-.105 1.26.315.21.42.106 1.05-.314 1.26l-3.152 1.786c-.42.21-1.05.105-1.26-.315-.21-.42-.105-1.05.315-1.26l3.151-1.786zM18.426 14.928c.42.21.63.84.315 1.261-.21.42-.84.63-1.26.315l-3.151-1.786c-.42-.21-.63-.84-.316-1.26.21-.42.84-.63 1.261-.315l3.151 1.785z"/></svg><svg viewBox="0 0 50 48" id="ic_selection_check_icons9" xmlns="http://www.w3.org/2000/svg"><path d="M47.425 2.533H3.086c-.22 10.482.774 18.176 3.981 24.532 3.207 6.467 8.846 11.82 18.244 17.507 9.288-5.687 15.038-11.04 18.244-17.507 3.207-6.356 4.091-14.05 3.87-24.532zM25.311.303h24.326v1.115c.331 11.262-.664 19.625-4.092 26.65-3.538 7.025-9.62 12.713-19.681 18.734l-.553.335-.553-.335C14.696 40.781 8.615 35.093 5.077 28.068 1.538 21.043.654 12.68.875 1.418V.303h24.436z"/><path d="M32.45 15.145l-.921-.747-.43 1.106c-.007.021-.831 2.104-2.096 1.725a.896.896 0 0 1-.591-.51c-.314-.673-.18-1.891.34-3.103.72-1.676.405-3.432-.912-5.08a9.253 9.253 0 0 0-2.086-1.888l-1.349-.841.03 1.59c0 .027.03 2.851-2.061 3.887-1.281.634-2.198 1.683-2.582 2.954a4.533 4.533 0 0 0 .414 3.566c.255.442.332.816.23 1.112-.147.424-.62.643-.762.7-1.494.6-2.473-1.404-2.512-1.487l-.682-1.455-.835 1.372a11.278 11.278 0 0 0-1.64 5.867c0 6.189 4.998 11.23 11.17 11.304l.136.002c6.235 0 11.306-5.072 11.306-11.306 0-3.414-1.519-6.61-4.167-8.768zM21.774 29.958v-.01c-.009-.687.122-1.423.39-2.196l2.125.621.02-1.127c.034-1.727 1.008-2.788 1.786-3.361.2.868.511 1.643.941 2.345.49.8.954 1.478 1.383 2.091.275.395.43.99.427 1.634v.004c0 .944-.367 1.832-1.035 2.5a3.513 3.513 0 0 1-2.501 1.035 3.54 3.54 0 0 1-3.536-3.536zm8.282 2.276c.336-.7.515-1.473.515-2.273.005-1.005-.258-1.938-.738-2.627a38.29 38.29 0 0 1-1.326-2.004c-.491-.802-.786-1.747-.902-2.89l-.114-1.116-1.05.397c-.098.038-.987.388-1.898 1.215-.967.877-1.59 1.96-1.838 3.178l-1.541-.45-.305.693c-.55 1.256-.823 2.47-.81 3.607.001.813.188 1.584.52 2.273a9.587 9.587 0 0 1-4.081-12.07c.077.085.158.17.244.253 1.057 1.017 2.33 1.3 3.584.796.848-.34 1.485-.974 1.748-1.737.188-.543.277-1.424-.366-2.537a2.765 2.765 0 0 1-.257-2.205c.245-.81.848-1.487 1.697-1.908 1.788-.885 2.518-2.547 2.817-3.808.188.185.38.394.562.625.886 1.123 1.105 2.23.65 3.289-.728 1.694-.847 3.381-.319 4.513a2.612 2.612 0 0 0 1.658 1.433c1.184.355 2.341-.058 3.26-1.164.143-.173.27-.35.38-.518a9.542 9.542 0 0 1 2.746 6.714 9.587 9.587 0 0 1-4.836 8.32z"/></svg><svg viewBox="0 0 11 18" id="ic_slider_arrow" xmlns="http://www.w3.org/2000/svg"><rect x="8.776" width="2.239" height="12.413" rx="1" transform="rotate(45 8.776 0)"/><rect x="10.358" y="15.943" width="2.239" height="12.41" rx="1" transform="rotate(135 10.358 15.943)"/></svg><svg viewBox="0 0 18 11" id="ic_toggle_arrow" xmlns="http://www.w3.org/2000/svg"><rect x=".414" y="1.583" width="2.239" height="12.413" rx="1" transform="rotate(-45 .414 1.583)"/><rect x="16.359" y=".001" width="2.239" height="12.41" rx="1" transform="rotate(45 16.36 .001)"/></svg><svg viewBox="0 0 18 17" id="ic_user" xmlns="http://www.w3.org/2000/svg"><path fill-rule="evenodd" clip-rule="evenodd" d="M8.945 2.044c1.31 0 2.4.968 2.4 2.26 0 1.183-1.09 2.259-2.4 2.259-1.309 0-2.29-1.076-2.29-2.367 0-1.184 1.09-2.152 2.29-2.152zm0 9.467c3.382 0 6.873 1.507 6.873 2.26V16.03c0 1.291 2.182 1.291 2.182 0v-2.26c0-2.796-6-4.195-8.945-4.195C6.109 9.575 0 10.974 0 13.771v2.26c0 1.398 2.182 1.183 2.182 0v-2.26c0-.646 3.49-2.26 6.763-2.26zM8.945 0c-2.4 0-4.472 1.937-4.472 4.196 0 2.367 1.963 4.196 4.472 4.196 2.51 0 4.473-1.937 4.473-4.196C13.528 1.936 11.455 0 8.945 0z"/></svg><svg viewBox="0 0 20 11" id="ic_vkontakte" xmlns="http://www.w3.org/2000/svg"><path d="M19.894 9.934a1.317 1.317 0 0 0-.068-.125c-.347-.603-1.01-1.342-1.989-2.219l-.02-.02-.01-.01-.011-.01h-.01c-.445-.408-.726-.683-.844-.823-.216-.268-.264-.539-.146-.813.083-.208.396-.646.937-1.315.285-.355.51-.64.677-.853 1.2-1.54 1.722-2.523 1.562-2.952l-.062-.1c-.042-.06-.15-.115-.323-.165-.174-.05-.396-.059-.666-.025l-3 .02a.403.403 0 0 0-.208.005l-.135.03-.052.025-.042.03a.455.455 0 0 0-.114.105.682.682 0 0 0-.104.176c-.327.81-.698 1.563-1.114 2.259-.257.415-.493.774-.709 1.079a5.218 5.218 0 0 1-.541.672c-.146.144-.278.26-.396.346-.118.088-.208.124-.27.111a8 8 0 0 1-.178-.04.678.678 0 0 1-.234-.246 1.075 1.075 0 0 1-.12-.392 4.166 4.166 0 0 1-.036-.406 8.09 8.09 0 0 1 .005-.482c.007-.208.01-.348.01-.422 0-.254.006-.53.016-.828l.026-.707c.007-.174.01-.359.01-.553A2.24 2.24 0 0 0 11.7.83a1.522 1.522 0 0 0-.109-.322.547.547 0 0 0-.213-.24 1.229 1.229 0 0 0-.35-.136c-.367-.08-.836-.124-1.405-.13C8.33-.013 7.5.067 7.133.241a1.396 1.396 0 0 0-.396.301c-.125.148-.142.228-.052.241.417.06.712.204.885.432l.063.12c.049.087.097.241.146.462.048.221.08.465.093.733.035.488.035.907 0 1.255-.034.348-.067.619-.099.813a1.584 1.584 0 0 1-.14.472c-.063.12-.104.194-.125.22a.176.176 0 0 1-.052.05.806.806 0 0 1-.281.05c-.098 0-.216-.046-.354-.14a2.466 2.466 0 0 1-.432-.386 5.173 5.173 0 0 1-.506-.688A11.869 11.869 0 0 1 5.3 3.133l-.166-.291c-.104-.187-.247-.46-.427-.818-.18-.358-.34-.705-.48-1.04a.665.665 0 0 0-.249-.32l-.052-.03a.722.722 0 0 0-.167-.086 1.137 1.137 0 0 0-.24-.065L.668.503c-.292 0-.49.064-.594.19L.031.755A.315.315 0 0 0 0 .914c0 .074.02.165.063.272.416.943.869 1.853 1.358 2.73.49.877.915 1.583 1.276 2.118.36.535.729 1.04 1.104 1.516.375.475.623.78.744.913.122.134.217.234.287.301l.26.241c.167.16.411.353.734.577.323.225.68.445 1.073.663.392.217.848.395 1.37.532.52.137 1.026.192 1.52.166h1.197c.243-.02.427-.094.552-.221l.041-.05a.649.649 0 0 0 .078-.186.984.984 0 0 0 .037-.276 3.195 3.195 0 0 1 .067-.778c.052-.23.111-.405.178-.522a1.285 1.285 0 0 1 .4-.441.697.697 0 0 1 .084-.036c.166-.053.362-.001.588.156.226.157.438.352.636.582.197.231.435.49.713.778.277.288.52.502.729.643l.208.12c.139.08.32.154.541.221.222.067.417.084.584.05l2.665-.04c.264 0 .469-.042.614-.125.146-.084.233-.176.26-.276.029-.1.03-.215.006-.342a1.226 1.226 0 0 0-.073-.266z"/></svg><svg viewBox="0 0 20 13" id="ic_youtube" xmlns="http://www.w3.org/2000/svg"><path d="M19.15 1.253C18.608.34 18.019.173 16.82.109 15.623.032 12.611 0 10.002 0 7.39 0 4.376.032 3.18.108 1.984.173 1.394.339.846 1.253.288 2.163 0 3.733 0 6.496v.01c0 2.751.287 4.332.846 5.234.548.912 1.136 1.078 2.333 1.155 1.197.066 4.21.105 6.823.105 2.61 0 5.62-.039 6.82-.104 1.198-.077 1.787-.242 2.33-1.155.563-.901.848-2.483.848-5.234v-.006-.003c0-2.765-.285-4.334-.85-5.245zM7.5 10.046V2.955L13.75 6.5 7.5 10.046z"/></svg></svg>